<svg version="1.2" xmlns="http://www.w3.org/2000/svg" viewBox="0 0 1612 556" width="1612" height="556">
	<title>logo repositorio digital 01-ai</title>
	<style>
		.s0 { fill: #ffffff } 
		.s1 { fill: #303033 } 
		.s2 { fill: #aa1731 } 
		.s3 { fill: #386345 } 
		.s4 { fill: #000000 } 
		.s5 { fill: none;stroke: #626466;stroke-width: 12 } 
		.s6 { fill: #f2f3f4;stroke: #626466;stroke-width: 12 } 
		.s7 { fill: #626466 } 
		.s8 { fill: #345b82 } 
		.s9 { fill: #f8ca2c } 
	</style>
	<g id="_Artboards_">
		<path id="Mesa de trabajo 1" class="s0" d="m-105-8.2h451.2v124.5h-451.2z"/>
		<path id="Mesa de trabajo 2" class="s0" d="m-105 139.7h412.8v134.3h-412.8z"/>
	</g>
	<g id="Capa 1">
		<g id="&lt;Group&gt;">
			<path id="&lt;Path&gt;" class="s1" d="m323.5 915l-1.7-12.5c0-7.7-0.2-14.5-0.6-19.2-0.2-2.3-0.3-3.8-1.6-5.8-2.3-3.6-5.4-6.7-6.5-10.3l-2.9-12.8c-0.4-2.2 2.9-3.8 3.7-2.1l1.1 4.5c0.4 1.4 0.6 2.9 0.9 4.3 0.6 3 1.7 5.6 3 7.9 3.3 4.5 5.3 8 5.7 10.5 1.2 6.7 0.4 13.4 0.6 24.5 0.1 2.2 1.4 2.1 1.5 0.1 0-3.7 0-7.2 0.7-10.1 1.6-4.7 2.6-9.1 2.3-12.8q-0.5-10.7-3.3-19.2c-0.6-2.4 2.8-2.1 3.5-0.7 2.4 7.1 3.5 14.1 3.6 21 0.1 5.3-2.6 10.3-3.5 17.9-0.4 12.1-0.9 26-4.4 30.2q-3.9 3.8-3.2-1.7c1-4.7 1.5-9.3 1.1-13.7z"/>
			<path id="&lt;Path&gt;" class="s1" d="m318.1 857.9q-0.1-1.6 1.7-1c1 0.4 1.8 1 2.5 2.3 0.2 0.5 0.3 0.8 0.4 1.4q0 1.1 0.1 2.2c0 0.8 0.1 1.3 0.4 2.1l1.3 3.8q0.4 2.6-1.1 1.7c-2.8-3.1-4.8-7.1-5.3-12.5z"/>
			<path id="&lt;Path&gt;" class="s1" d="m306.1 908.5q-0.3-2.9-1.4-5.7c-2.9-6.8-4.4-11.5-5.3-18.1-0.4-3-0.4-6-2-8.7-1.2-2.1-3.2-4-6.1-6.7-0.7-0.7-1.3-1.3-1.8-2.1-1.5-2.2-2.9-5.1-4-8.7-0.8-3.1 1.8-6 3.5-1.3 2.6 6.6 5.7 11.3 9.3 14.2 2 1.8 2.8 3.9 3.7 7.5 0.4 1.6 0.6 3.1 0.8 4.8 0.7 5.4 1.5 9.7 2.4 10.9 0.4 1.7 1.6 1.8 1.5-0.3 0-5.7-0.9-11.6-3.2-18-1.1-2.9 1.2-2.8 2.4-0.5 2.1 3.5 3.1 10.1 3.7 18 0.6 12.4 0.4 17.2 0 22.4 0.1 3.1-2.3 4-2.9-0.2z"/>
			<path id="&lt;Path&gt;" class="s1" d="m295.3 856.9c0.6 3.4 1.6 6.2 3 8.4 0.7 1.7-0.3 2.4-1.3 1.3-2.2-2.3-4-5.4-5-9.9-0.4-1.6 3-2 3.3 0.2z"/>
			<path id="&lt;Path&gt;" class="s1" d="m315.1 910.4c0-2.1-0.3-4-1-5.8-2.7-7.8-3.7-17-5-25.3-0.3-3.3-1.6-5.8-3.6-7.7-3.6-3.8-5.8-9.3-7.3-15.7-0.2-0.8-0.3-1.4-0.1-2.2 0.5-2.6 2.2-2.8 3 0.8 2.4 7.3 4.8 12.5 8 16.2 2 2.7 3.1 5.1 4.2 10.5l1.4 13c0 0.6 0.1 1 0.3 1.6 0.7 1.6 1.5 1.1 1.5-0.8-0.2-6.1-1-11.5-1.9-16.8-0.1-2.8 0.7-2.4 2.1-0.5q1.6 2.4 2.1 5.6c0.7 4.5 0.9 8.9 0.9 13.3 0.3 9.3 0 17.5-1.2 24.3-0.6 4-2.8 3.6-3-0.4-0.2-2.3-0.3-5.1-0.4-10.1z"/>
			<path id="&lt;Path&gt;" class="s1" d="m303.5 854.8c-0.3-2.3 2.1-2.2 3.4-0.4 0.5 0.6 0.6 1.1 0.7 1.8l0.5 3.4c0.2 1.5 0.9 3.4 2 5.7 0.2 0.5 0.5 1 0.5 1.6q0.2 1.4-0.7 1.3c-0.4 0-0.6-0.3-0.9-0.6-2.8-2.9-4.6-7.3-5.5-12.8z"/>
			<path id="&lt;Path&gt;" class="s1" d="m272.7 861.9c0.3-1.1 1.2-2.3 2.1-2.1 0.5 0.2 0.7 0.8 0.9 1.2 0.6 1.4 1.3 2.7 2.2 4 2.3 2.9 5.5 5.5 9.1 7.9 2.4 1.5 4.5 4.1 6.2 8.8 0.6 1.6 1.5 1.7 1.3-0.2-0.2-1.9-0.8-3.9-1.7-5.9-0.2-0.6-0.4-1-0.3-1.6 0.1-1.3 0.7-1.5 1.9-0.2 3.2 4 4.4 11.9 4.6 24.6 0 0.8 0 1.4-0.2 2.1-0.5 1.3-1.5 1.5-2.4 0.4-0.5-0.7-0.7-1.4-0.9-2.2-0.9-3.1-1.9-7.7-4.3-14.5-1.9-5.1-5.7-8.8-10.4-11.4-2.9-1.6-5.6-4.5-7.9-9.4-0.3-0.5-0.4-0.9-0.2-1.5z"/>
			<path id="&lt;Path&gt;" class="s1" d="m281.5 859.2c1.3 2.8 2.3 4.6 4.1 6.4 1 1.2 0.2 2.1-1 1.5-2.6-1.5-4.3-3.8-6.3-7.4-0.8-1.3 2.4-2.3 3.2-0.5z"/>
			<path id="&lt;Path&gt;" class="s1" d="m267.4 868.4c0.7 0.5 1.6 1.2 3.3 2.2q2.6 1.2 4.5 2.1c0.9 0.5 1.5 0.9 2.2 1.6q1.8 2 3.3 4.6c0.3 0.5 0.9 0.1 0.6-0.3l-1.2-2.7c-0.6-2 2.8-0.7 3.4 0.8 2.8 6.6 4.5 11.5 5 14.3 0.4 2.1-1.5 2.8-2.6 1.4-4.3-5.6-7.1-11.6-11.1-16-0.9-1-1.8-1.6-3-2.3-1.1-0.5-2.3-1.1-3.7-1.6-0.9-0.4-1.7-0.8-2.6-1.3-1.6-1.1-2.8-2.4-3.6-4-0.9-2 0.4-3.7 1.9-2.5 1.4 1.5 2.6 2.7 3.6 3.7z"/>
			<path id="&lt;Path&gt;" class="s1" d="m266.1 888.5c14 10.8 26.7 21.1 38.4 31 1.7 1.4 3.9 3 7.1 5.2 1 1 1.1 2.2 0.3 3.3-4.9 4.2-10.3 5.2-16.1 1.7-10.3-9.4-20.6-18.7-30.9-28-0.7-0.5-1-0.9-1.3-1.8-0.5-1.8 0.3-3.2 1.8-1.9 10.4 9.4 20.9 18.7 31.2 27.7 3.5 2.9 6.9 3.6 10.4 1.8 0.6-0.5 0.8-1 0.6-1.4-0.3-0.6-1.2-1.2-1.8-1.6l-3.4-2.8-36.7-30c-2.1-1.4-1.8-5 0.4-3.2z"/>
			<path id="&lt;Path&gt;" class="s1" d="m266.1 893.4l35.8 31c1.4 1.3 0.6 2.6-1.3 1.8-1.2-0.6-2.7-1.6-4.6-3.2l-30.3-26.6c-1.9-2-1.1-4 0.4-2.9z"/>
			<path id="&lt;Path&gt;" class="s1" d="m264.1 902.2l23.5 21.7 3.3 2.9c1 1-0.5 2.5-2.6 1.3q-1.7-1.1-3.2-2.7-11.2-10.3-21.9-21.2c-1.5-1.7-0.6-3.3 0.9-2z"/>
			<path id="&lt;Path&gt;" class="s1" d="m268.8 864c0.9 0.3 1.5 0.8 2 1.5 0.5 0.6 0.9 1.2 1.1 1.9q0.4 1.7-1.4 1.1-2.3-1.3-4-3.5c-0.6-1.2 0.3-1.8 2.3-1z"/>
			<path id="&lt;Path&gt;" class="s1" d="m263 905.7c7.5 7.1 13.6 13.9 23.4 23 2.3 1.9 4.3 2.5 6.6 2 0.7-0.2 1.2-0.5 1.9-0.1 0.8 0.4 1.4 1.3 0.3 2.2-1.3 0.8-3.4 1.7-6.9 0.7-1.5-0.5-2.8-1.7-4.8-3.7-6.8-6.6-13.4-13.5-20-20.3l-1.4-1.6c-0.3-0.4-0.6-0.7-0.8-1.2-0.3-1.3 0.5-2.1 1.7-1z"/>
			<path id="&lt;Path&gt;" class="s1" d="m260.1 907.3c1.8 1.4 3.1 3.3 4.6 4.9 5.4 6.1 10.7 11.8 15.9 16.6 0.7 0.8 0.7 1.3-0.1 1.5-1.2 0.1-2.8-1-4.7-2.8-5.5-5.8-11.1-12-16.7-18.7-0.6-1.1 0.1-2.2 1-1.5z"/>
			<path id="&lt;Path&gt;" class="s1" d="m258.7 910.1q8.8 10.1 18.2 19.6c1.9 1.6 4 2.6 6.5 2.8 1.3-0.1 2.1 1.8 0.8 2.2-2 0.5-4.1 0-6.2-1.1-2.3-1.3-3.9-2.8-5.7-4.8-6.2-6.7-10.5-11.4-13.7-15.1-0.4-0.5-0.8-0.9-1.1-1.5-0.8-1.8-0.3-3.6 1.2-2.1z"/>
			<path id="&lt;Path&gt;" class="s1" d="m260.6 918c4.5 5.4 9.1 11.9 12.5 12.5 1.5 0.3 2.1 2.1 0.6 2.3-2.7 0.1-4.6-1.2-6.2-2.9l-8.3-10.6c-0.7-1.2 0.5-2.3 1.4-1.3z"/>
			<path id="&lt;Compound Path&gt;" fill-rule="evenodd" class="s1" d="m170.4 826.1c1.8 1.9 0.4 3.2-2.1 3.1-5.5-0.1-8.7-3.2-10.8-7.8-0.4-1.8-0.5-3.4 0.7-5.3 0.9-1.6 2.3-3.3 4-4.8 0.8-0.8 1.7-0.8 3.5-0.5q1.9-0.1 0.7-1.4c-1-0.7-0.9-0.9-0.2-1.6 1.4-1.2 3.1-1.1 5.3-0.1l5.5 2c1.7 0.6 3.9 0.6 6.4 0.2 4.2-1 7.2 0.5 10.1 3.3 0.8 1.1 0.9 2-0.2 3-2.4 1.8-5 3.6-8.1 4.7-1.6 0.5-2.5 0.2-3.7-0.1q-1.7-0.4-0.7-1.8c0.7-0.7 2.1-1.3 4.5-1.8 0.8-0.2 1.4-0.3 2-0.9 0.6-0.6 0.8-1.2 0.1-2-2.2-1-4.3-0.7-7.2 1.5-1.3 0.9-2.7 1.1-4.1 1.1-6.7-1.7-11.1 4.3-5.7 9.2zm-7.5-3.3c1.4 1.3 2.1 1.1 2.2-1-0.1-4 1.7-6.5 5.4-7.4 1.9-0.3 3.4-0.5 5.5-0.2q1.6-0.2 0.6-1.5c-1.4-1.2-3-1.8-5.1-1.3q-1.8 0.7-3.3 2.5c-0.7 0.5-1.6 0.8-2.6 0.2-0.7-0.4-1.4-0.5-2.4-0.2-3 2.5-3.5 5.4-0.3 8.9z"/>
			<path id="&lt;Path&gt;" class="s1" d="m168.7 804.6c-1.2-1-1.2-2.4 0.6-4.1 1-0.9 2.2-1.7 4.5-3.2 2.2-1.5 4.6-3.7 5.1-7.7 0-1.3 0-1.9 0.9-1.2 1.5 1 2 2.9 1.3 5.7-0.5 1.8-1.1 2.2-2.3 3.6-1.2 1.3-2 2.8-2.4 4.5-0.4 1.7-0.9 3.1-1.6 3.7q-0.9 1-2 0.6c-1.7-0.5-2.9-1.2-4.1-1.9z"/>
			<path id="&lt;Path&gt;" class="s1" d="m178.6 800.6c-0.3-1.1 1-1.8 1.9-0.4 1.3 2.9 0.7 5.4-2.7 7.1-1.3 0.6-2-0.6-0.9-1.5 1.8-1.1 2.2-2.9 1.7-5.2z"/>
			<path id="&lt;Path&gt;" class="s1" d="m184.3 785c0.4-0.9 0.8-1.1 1.4-0.5q2.1 2.1 2 5.2-0.3 1.4-1.6 0.7c-2.1-1.3-1.2 1.9-1.8 2.5-0.7 1.1-1.6 1-1.6-0.5 0.3-3 0.8-5.7 1.6-7.4z"/>
			<path id="&lt;Path&gt;" class="s1" d="m188.4 791.3c1.8-2.2 2.8-5 2-9.6-0.1-0.8 0.2-0.9 0.9-0.5 3.2 2.9 4.2 12.3-7.9 17.3-1.5 0.3-3-1.5-1.6-2.5 0.5-0.4 3.5-2.3 6.6-4.7z"/>
			<path id="&lt;Path&gt;" class="s1" d="m183.8 799.5c3.2-2.4 7.6-3.2 10.9-6.2q1.3-1 2 0.2c1.1 2.3 0.3 4.3-2.1 6.2-4.2 2.8-8 4.9-11 5.4q-1.5 0.1-0.7-1.3c0.9-1.6 6.3-2.2 9.5-5 1.3-1.1 1-2.1-0.9-1.5-2.5 1-5.1 3.6-7.4 4.1-1.4 0.4-1.9-0.7-0.3-1.9z"/>
			<path id="&lt;Path&gt;" class="s1" d="m180.2 807.9c0.9-0.7 7.4-2.3 13-4.8 2.8-0.8 5 0 5.4 1.3 0.5 3-1.7 4.9-6.4 5.8-2.1 0-2.8-0.9-1.7-1.7l3.6-2.1c0.5-0.3 0.5-0.9 0.1-1.2-0.4-0.4-1.3-0.2-1.8-0.1-2.4 0.5-4.8 2.4-8.1 3.9-1.4 0.6-2.9 0.7-4.4 0.1-0.9-0.4-0.6-0.8 0.3-1.2z"/>
			<path id="&lt;Path&gt;" class="s1" d="m194.4 790.3c-0.3-1.1 0.3-2.1 1.3-3.1q0.8-0.6 1.4-2.4l0.7-2.6c0.5-0.9 1.2-1.2 2.1-0.4 2.9 2.2 2.6 8.7 0.5 11.5q-0.8 0.9-1.5 0.2c-0.3-0.3-0.6-0.6-0.8-0.7-0.5-0.4-0.6-1 0-1.8q1.2-1.2 1.9-2.4c0.4-1.1-0.8-2.3-1.9-1.1-1.2 1-1.9 1.9-2.4 2.9-0.5 0.6-1.1 0.6-1.3-0.1z"/>
			<path id="&lt;Path&gt;" class="s1" d="m204.5 789.2c3.6 0.7 7.3 2.4 11.1 4.6q2.2 1 4.4 0.3c0.5-0.5 0.9-0.3 0.9 0.3q-0.7 3.5-3.1 5.8-0.7 0.7-1.7 0.1c-5.2-2.7-9-5.9-13.2-7.1-0.8-0.5-0.3-1.4 0.4-1.2 4.1 1.6 7.8 3.4 11.3 5.5 1.3 0.5 2 0.1 1.9-0.7-0.1-0.4-0.4-0.6-0.8-0.8-3.8-2.6-7.7-4.3-11.6-5.6-1.1-0.4-1-1.4 0.4-1.2z"/>
			<path id="&lt;Path&gt;" class="s1" d="m197.8 810.8c-0.4-0.7 0.5-1.2 1-0.6 1.4 1.3 2 2.9 1.8 4.8-0.4 1.8-2.2 2.6-3.8 1.5-1-0.7-1.7-2-2.1-4-0.3-1.4 1.2-2.1 1.8-1.1 0.9 2.5 2.5 1.5 1.3-0.6z"/>
			<path id="&lt;Path&gt;" class="s1" d="m203.4 809.8c0.3 0.3 0.6 0.6 1.1 0.6 0.7-0.1 1.3-0.9 0.7-1.9-1.4-1.9-3.9-3.3-5.8-5.3-0.7-0.8-0.2-1.2 0.7-0.9 3.6 1.9 6.6 3.8 8.1 6.1 0.6 1.2 0.9 2.5 0.1 3.5-2.2 2.4-4.2 3.2-5.9 1.8-1.4-1.4-2-3.2-2.4-5.2-0.4-1.8 0.9-2.1 1.6-1 0.4 0.7 0.9 1.5 1.8 2.3z"/>
			<path id="&lt;Path&gt;" class="s1" d="m201.7 794.2c6.1 2.2 10.5 5 12.9 8.6 1 1.7 0.3 3.7-0.9 4.7-1.2 1.1-2.1 0.8-3.4 0.1-1.7-0.9-3.4-2.4-5-4.1-0.4-0.5-0.1-1.1 0.5-0.8l3.5 1.7c2.3 0.6 2.7-2.3 1.6-3.1-4.6-3.2-7.3-4.7-9.2-5.6-1.4-0.7-1.4-1.7 0-1.5z"/>
			<path id="&lt;Path&gt;" class="s1" d="m199.2 797.6c-0.7-0.8-0.4-1.4 0.6-1.1 3.1 1.1 5.8 2.7 8.1 4.7 0.5 0.7 0.2 1.3-0.7 0.9l-1.5-0.9q-0.7-0.3-0.5 0.5c0.1 0.8-0.2 1.2-0.9 1q-3.3-1.5-6.2-2.7c-0.6-0.3-0.8-0.9-0.1-1 1.5 0.1 1.8-0.5 1.2-1.4z"/>
			<path id="&lt;Path&gt;" class="s1" d="m293.7 797.6c11 9.3 24.9 24.7 34 48.4 0.9 3.9 2.8 7.3 5.9 10 1.4 1.3 0.7 2-0.9 2.3-8.9 0.5-15-3.3-19.2-10.1-12-21.6-22.6-35.6-32.1-43.3-1.7-1.8-1.2-5.1 0.8-2.8 11.6 10.8 22.8 22.4 31.9 40.1 2.1 3.5 4.6 6.7 7.9 9.1q3.5 2.7 3.1-0.5c-8.9-24.4-20.3-40.2-33-51.3-1.8-1.8-0.3-3.2 1.6-1.9z"/>
			<path id="&lt;Path&gt;" class="s1" d="m288.1 800.3c14 12.2 25.4 27 33.6 45.3 1.7 4-0.7 4.3-2.3 2.6-12.8-24.2-23.1-36.6-33.2-46.1-3-2.1-0.2-3.1 1.9-1.8z"/>
			<path id="&lt;Path&gt;" class="s1" d="m281.9 809.3c12.6 11.1 22.5 23.5 28.6 37.8 0.8 3.9-3.1 5.7-6.9 3.1-4.9-4.7-15.3-21.6-24.3-30.1-1.2-1.9-0.3-5.8 1.1-4.1 8.5 8.9 16.8 18 23 29 1.4 2.3 3.4 2.1 2.2-0.5-7.6-13.4-15.9-22.8-24.2-31.6-1.5-1.2-1.8-6.4 0.5-3.6z"/>
			<path id="&lt;Path&gt;" class="s1" d="m278.1 822.5c7.4 6.8 14.4 14 19.1 23.8 1.3 5-1.4 7.6-7.2 6.1-2-1-4-2.6-5.8-5l-11.2-13.9c-0.8-1.3 0.2-4.3 1.6-2.9 4.8 5.6 9.9 12.4 15.4 17.9 1.8 2 5.3-0.1 3.6-2.9-5.1-8.1-10.8-14.4-16.5-20.5-0.8-1.4-0.1-3.9 1-2.6z"/>
			<path id="&lt;Path&gt;" class="s1" d="m275 825.3c6.1 5.8 11.5 12.1 16.1 18.9 0.6 1.3-0.4 2.2-1.4 1.5q-8.3-8.4-15.9-18.1c-0.5-1.1 0.4-3.1 1.2-2.3z"/>
			<path id="&lt;Path&gt;" class="s1" d="m272.5 835.4c4.8 4.9 10.2 11.1 11.3 14.3 1.2 5.5-0.6 8.2-8.1 6.2-2-0.9-5.8-5.1-10.5-11-0.8-1.3 0.5-3.7 1.6-2.7 3 3.7 6.1 7.3 9.5 9.8 2.5 1.6 5.2 0 3.9-2.5-2.6-4.5-5.8-8.4-9.4-11.8-1.5-1.7 0.1-3.6 1.7-2.3z"/>
			<path id="&lt;Path&gt;" class="s1" d="m267.8 837.4c4.5 3.6 8 7.8 10.8 12.3 0.4 1.2-1 1.8-1.9 1l-9.3-10.1c-1.1-1.3-0.5-4.2 0.4-3.2z"/>
			<path id="&lt;Path&gt;" class="s1" d="m264.1 845.7c3 3.1 5.6 6.3 7.7 9.8 1.6 5-4.5 7.6-7.8 6-2.7-1.6-5.2-4-7.4-7.5-0.7-1.4 0.6-2.9 1.6-2.1 1.9 2.4 3.9 4.6 5.8 6.2 1.8 1.2 4.9-0.2 4-3-0.5-1.4-2.8-4.2-5.6-7.5-0.6-1.1 0.6-2.8 1.7-1.9z"/>
			<path id="&lt;Path&gt;" class="s1" d="m260.7 848c2 1.6 3.6 3.4 5 5.3 1.5 2-0.8 3.6-2.4 2.2-1.5-1.7-2.5-2.9-4-4.7-0.4-0.5-1-1.1-0.9-1.8 0-0.9 1.1-1.9 2.3-1z"/>
			<path id="&lt;Path&gt;" class="s1" d="m255.2 854.8l4.6 5.8q1.2 2.8-0.8 4.4l-4 3.2c-1.3 0.8-2.5-0.6-1.8-2 1-1.9 5.2-3.4 3.2-5.7l-2.9-3.6c-0.8-1.8 0.6-2.9 1.7-2.1z"/>
			<path id="&lt;Path&gt;" class="s1" d="m252.5 857.2l2.2 4.4c0.5 1.4-1 2.3-1.8 1.3l-2.5-4.5c-0.6-1.6 1.6-2.4 2.1-1.2z"/>
			<path id="&lt;Path&gt;" class="s1" d="m256.8 789.8c5 1.7 11.2 5.3 17.7 9.6 3.6 3 5.2 6.2 3.8 9.7-1.3 1.9-2.7 1.5-4.3 0.3-5.6-4.8-10.4-8.2-14.7-10.4-1.7-0.8-1.5-3.5 0.1-2.6 4.5 2.2 9 4.8 13.5 8.9 2.3 1.4 3.2-0.6 2.1-1.8-4.3-4.3-10.5-7.5-16.7-10.7-2.5-1.8-3.2-3.9-1.5-3z"/>
			<path id="&lt;Path&gt;" class="s1" d="m260.2 801.2c6 3.6 11.5 7.6 15.8 12.6 1.1 2.1 0.6 6.4-1.7 8.7q-0.8 0.6-1.7 0.5c-1.3 0-3.1-1.3-4.2-2-2.2-1.4-4.2-3.1-6.1-4.9-1.8-2-1.9-5-0.4-3.8l8.5 5.8c2.4 1.6 3.7-1.7 2.6-3.8-1-2.4-9.6-7.4-13.1-10.3-1.3-1.1-1.1-3.3 0.3-2.8z"/>
			<path id="&lt;Path&gt;" class="s1" d="m260.9 807.1l10.4 7.4c1.2 1.3-1 2-2.1 1.4-3.1-2.1-6-4.3-8.4-6.8-0.6-0.8-0.7-2.6 0.1-2z"/>
			<path id="&lt;Path&gt;" class="s1" d="m263.1 818.7l7 5.9c1.9 1.6 2.4 3.6 1.6 6-0.8 1.8-1.7 2.9-2.7 3.7q-1.7 1.1-3.5-0.3l-5.1-4.4c-1.1-1.2-0.2-3.7 1.2-3l3.9 3c2 1.8 3.2-1.4 2-3-1.1-1.5-3.1-3.4-5.3-5.3-1.1-1.7-0.3-3.6 0.9-2.6z"/>
			<path id="&lt;Path&gt;" class="s1" d="m261.4 825.1c-0.7-1.3 0.5-2.4 1.4-1.8l3.1 2.2c1.2 1.2 0 2.9-1.4 2.4z"/>
			<path id="&lt;Path&gt;" class="s1" d="m259.6 831.4c2.1 1.2 3.5 3 4.9 4.9 1.9 3.3-0.1 5.4-1.8 8.2-1.3 1.2-2.6 1.7-3.9 0.9l-5.1-4.5c-1.4-1.1 0.2-4.1 1.5-2.6l2.8 2.4c1.8 1.4 3.9-1.6 2.9-3.4l-2.6-3.1c-0.8-1.1-0.3-3.6 1.3-2.8z"/>
			<path id="&lt;Path&gt;" class="s1" d="m255.9 837.2c-1.3-1.5 0.5-2.9 1.4-2.2l1.9 1.6c1.1 1.2-0.1 3.2-1.4 2.2z"/>
			<path id="&lt;Path&gt;" class="s1" d="m252.4 840.5c1 0.9 2.2 2.6 3.9 5.5 2.2 4-4.7 11.1-7.5 7.7l-3.9-5.1c-0.9-1.7 0.2-3.5 1.7-2.5l2.5 3.1c2.2 1.8 4.1-1.5 3.3-3.4l-1.7-2.6c-0.9-1.6 0.6-4.1 1.7-2.7z"/>
			<path id="&lt;Path&gt;" class="s1" d="m247.7 845.9c-0.6-1.4 0.7-2.7 1.7-1.9l2.1 2.3c0.8 1.4-0.7 2.6-1.6 2z"/>
			<path id="&lt;Path&gt;" class="s1" d="m257.3 870.1c5.4 9.9 6.2 28.6 1.5 34.5-1.6 1.7-3.3 1.7-3.5-0.7-0.7-11.3-2.5-18.2-4.8-22.6-0.7-1.8 0.1-6.2 1.2-4.4 2.4 4.7 4.5 10.5 5.5 19.4 0.3 2.2 1.1 2.8 1.8 0.6 1.6-7.2-0.3-15.6-3.7-24.4-0.7-1.9 1.1-3.5 2-2.4z"/>
			<path id="&lt;Path&gt;" class="s1" d="m253.7 872.2c2.6 4.9 4.3 10.8 4.7 18.2 0.1 0.9-1.3 1.2-1.4 0.1-0.7-6-2.4-11.1-4.7-15.3-0.6-1.5 0.4-4.6 1.4-3z"/>
			<path id="&lt;Path&gt;" class="s1" d="m237.7 829.9c10.1-7.8 8.6-13.9 6.7-24.8-1.9-11-5.2-14.5-9.7-17.6q-2-1.3-4-2.6c-2.8-1.6-5.9-2.5-7.9-5.3-2.6-3.5-1.8-7.6 2.1-9.5 1.6-0.8 3.2-0.7 5.1-0.6 18.3 1.1 35.2 7.2 50.7 18 3.4 2.7 6.8 3.8 10.3 3.8q3.6 0.4 1.5 3.2c-5.8 4.4-11.8 4.5-17.9 2q-1-0.2-0.8-1.3l0.7-3.1c0.3-1.2 1.5-1.5 1.8 0l1.3 2.3c0.5 0.6 1.2 1.1 2.5 1.2 2.7 0 3.9-0.7 2.9-2.5-14.1-11.4-29.5-18.5-47.1-21.1-2.5-0.3-6.2-1-8.6 0.2-2.6 1.2-3.1 4-0.8 6.1l10.6 6.1c3.6 1.8 6.7 4.7 8.4 9.6 2.5 8.4 7.2 25.3 1.5 32.8-2.5 3.8-5.2 6.1-8 7.3-1.9 0.4-2.8-2.6-1.3-4.2z"/>
			<path id="&lt;Path&gt;" class="s1" d="m154.8 822.5l-7.5-0.5c-1.9-0.3-3.4-1.8-4.3-4.8l-2.8-12.7c-0.8-2.6 0.1-4.2 0.8-5.3 3.5-4 6.7-6.7 9.3-7.9 0.8-0.2 1.9 0.6 1.3 1.4l-1.2 1q-0.9 0.9-0.1 1.4c0.9 0 1.2 0.4 0.1 1.7-3.5 4.1-6.5 8.6-4.9 15 0.9 3.7 2 6.5 3.9 6.4l5.8 0.5c2 0.7 1.5 3.4-0.4 3.8z"/>
			<path id="&lt;Path&gt;" class="s1" d="m150.3 809.9c1.9 2.1 4.7 2.4 8.1 1.4 1-0.1 1.4 1 0.3 1.7q-5.6 4.1-9.8-1.1c-0.8-1.5 0.2-2.8 1.4-2z"/>
			<path id="&lt;Path&gt;" class="s1" d="m161.4 802.6c1.2-0.7 1.5 0.3 0.6 1.2-4.6 3.4-8.9 5.4-12.7 4.5-2-0.7-2.3-2.2-1.5-4.2 1-2.5 2.8-4.9 4.8-7.3 1.2-1.7 1.4-2.7 1-4.7-0.3-2.6 1.2-3.7 3.2-4.3 1.8-0.2 3.6 2.7 1.7 3.9-0.7 0.4-1.3 0.8-1.7 1.4-0.5 0.5-0.7 1-0.8 1.7q0 0.5 0 0.9c0 0.5 0 0.8 0.2 1.3 0.2 0.7 0.1 1.2-0.4 1.7-1 1.2-2.2 2.5-3.7 3.7-1.2 1.7-1 2.6 0.2 2.9 2.5 0 5.6-1 9.1-2.7z"/>
			<path id="&lt;Path&gt;" class="s1" d="m157.4 796c-0.8-1.6 1.5-4.2 2.8-1.4 0.5 1.3 0.6 2.6 0.2 3.7-0.5 1.1-1.2 2-2.3 2.5q-1.3 0.5-1.1-0.5c1-1.5 1.2-3 0.4-4.3z"/>
			<path id="&lt;Path&gt;" class="s1" d="m208.8 970.8c7.7 2.9 7.1 22 12 24 0.9 0.6 1.5 2.1-1.7 1.1-7.3-2.2-6.7-19.3-12-23.2-1.9-1.6-1-2.5 1.7-1.9z"/>
			<path id="&lt;Path&gt;" class="s1" d="m215.1 971c8 1.7 8.1 21.4 13 24.2q1.6 0.8-1 1.1c-7.7 0.1-7.6-20.1-13.4-23.8-1.2-1.1-0.7-1.6 1.4-1.5z"/>
			<path id="&lt;Path&gt;" class="s1" d="m225.3 978.1c6.9 2.5 3.8 11.9 9.9 17.6 0.8 0.6 0.9 0.8-0.7 1-7.4-0.4-7.4-15.3-10.3-17.2-0.8-0.8-0.4-1.7 1.1-1.4z"/>
			<path id="&lt;Path&gt;" class="s1" d="m207.3 965.4c3.4 1.2 7.9 0.7 10.9 1.1 1.6 0.3 1.9 3.2-0.5 3.4-3.2 0.1-11.7 0.6-13.9-2.3-0.7-1.8-0.3-3.1 1.7-2.9 0.7 0.1 1.1 0.5 1.8 0.7z"/>
			<path id="&lt;Path&gt;" class="s1" d="m244.6 973c-0.9 2.1-3.6 1.1-3.3-0.8 0.6-3 1.9-5.1 6-5.2 5.5 0.1 6.3 6.4 4 8.3-0.9 0.8-1.2 2-0.6 3.7 1.2 2.7 1.2 5.3-0.2 8-0.6 1.8-0.5 3.2 0.4 3.7 1.7 2 1.6 5.1-0.8 7-4.6 2-7.4 0.1-9.2-4.2-0.7-2.3 2.9-3.3 3.5-0.4 0.9 3.1 4.7 1 3.3-0.8-1.9-1.2-2.5-2.4-1.7-4.9 2.1-3.6 1.5-6.3 0.3-9q-1.2-2.9 1.4-4.5c2.8-1.9-2.2-5.5-3.1-0.9z"/>
			<path id="&lt;Path&gt;" class="s1" d="m199.6 969.2c-0.6-1.3-0.6-1.9-1.5-2.4-1.8-0.9-3.5 1.7-1.3 3.3 1.1 0.9 1.5 2.1 1.1 3.5l-0.9 3.3q-1.1 3.7 0.4 7.2 0.9 2.2-0.1 3.7c-0.8 0.5-1.4 1.1-1.7 2.1-0.5 2 2.1 2.9 3 1.3l1.3-2.2c0.9-1.1 2.7-0.1 3 1.1-0.3 1.9-1.1 3.5-2.7 4.7-3.5 2.1-7.8 0.8-8.6-3-0.4-2.2 0.2-2.7 1.1-4.3 0.8-1.3 0.7-3.1 0-5.1-1-1.8-0.7-4.1 0.2-6.9 1-1.7 1-3 0.2-4.4-0.8-1-1.3-1.4-1.3-3.4 0-7 9.9-6.2 11-0.2 0.9 3-1.7 3.7-3.2 1.7z"/>
			<path id="&lt;Path&gt;" class="s1" d="m203.3 996.2c1.1 0.6 1.9 0.9 2.7 0.9 9.5 0.8 19.4 1.3 29.8 1.4 0.9 0 1.8-0.1 2.6-0.6 3.1-2 5.1 1.4 3 2.6-1.7 1.1-3.7 1.5-5.7 1.5-5-0.6-33.1 0.7-36-3.6-0.8-2.3 0.5-3.6 3.6-2.2z"/>
			<path id="&lt;Path&gt;" class="s1" d="m216.9 775.6c-5.2-1-7.3 7.7-2.1 8.7q7.7 2.6 11.8 5.9 8 4.8 7.3 17.6c0 1.1-0.3 1.6-1.2 0.9-0.9-0.8-1.9-2.5-1.9-6.9-1.5-8.3-8.2-11.9-17.4-14.7-3.6-0.8-4.9-3.5-4.4-7.5 0.6-6.1 4.4-6.5 8.6-6.1 1.9 0.6 1 2.1-0.7 2.1z"/>
			<path id="&lt;Path&gt;" class="s1" d="m214.9 777.4c6.8-1.6 8.7 6.5 0.1 4.6-1.2-0.5-1.4-1.2-0.3-1.5 2.9 0 2.8-1.9 0.1-2-0.9-0.1-0.8-0.8 0.1-1.1z"/>
			<path id="&lt;Path&gt;" class="s1" d="m218.8 783.8c5.2 0.2 9.6 1.5 12.4 4.7 1.4 1.4-2.3 1.9-3.4 0.7-1.3-3.3-4.9-4.3-9.1-4.8-0.9-0.1-0.9-0.6 0.1-0.6z"/>
			<path id="&lt;Path&gt;" class="s1" d="m222.9 797c2.5 1.7 4.6 4.2 6.2 7.6 1.5 3.8 3.5 6.8 5.6 8.5 0.7 0.6 0.6 2.4-0.3 3.2l-4.7 3.4c-1.9 0.5-3.2-1.6-2.1-2.9 0.5-0.7 1.2-1.3 1.7-1.7 0.8-1 0.6-2 0.6-3-1.4-6.7-4.3-10.2-8.2-14.1-0.9-1.2 0.1-1.8 1.2-1z"/>
			<path id="&lt;Path&gt;" class="s1" d="m220.4 802.5c3.5 5 5.2 10.3 5.5 15.8 0 1.5-0.5 2.8-2.2 3.9q-2.3 1.5-5 2-2.7 0-2.6-2c0.3-5-0.1-9.4-0.8-13.7-0.2-1.8 1.2-1.7 1.6-0.7 0.7 2.2 1.4 5.1 1.7 10.3q0.4 2.9 3.4 0.4c1.7-3 0.1-8.3-3-14.8-0.6-1.8 0.4-2.5 1.4-1.2z"/>
			<path id="&lt;Path&gt;" class="s1" d="m217.7 803.8c1.6 2.7 2.9 6.2 3.7 10.9 0.1 0.5 0.2 1.1 0 1.6-0.4 0.9-1.3 1-1.5 0-0.7-4.8-1.7-8.7-3-11.7-0.5-1.1 0.1-2 0.8-0.8z"/>
			<path id="&lt;Path&gt;" class="s1" d="m222.1 800.2c2.7 3.5 4.7 7.6 6.1 12.2 0.5 1.5-1 2.3-1.4 1.2-1.5-5.1-3.3-9.2-5.3-12.6-0.6-1.2 0-1.6 0.6-0.8z"/>
			<path id="&lt;Path&gt;" class="s1" d="m214.5 811.2c0.3 8 1.2 17.3-8.9 15.8-3.9-0.7-0.4-9.7 0.5-11.7 0.8-1.5 2.1-1.2 1.9 0.6l-0.9 5.7c0.1 2.3 2 2.2 3.5-0.2 1.4-3.9 1.5-7 1.3-9.9-0.1-1.9 2-3.4 2.6-0.3z"/>
			<path id="&lt;Path&gt;" class="s1" d="m209 813.3c0.2-1.3 1.7-1.4 1.8-0.1 0.1 2 0 4.1-0.2 6.1-0.2 1.8-3.1 2-2.5-0.3 0.5-2.1 0.7-3.5 0.9-5.7z"/>
			<path id="&lt;Path&gt;" class="s1" d="m197.6 823.2c-0.7 0.8 0.5 1.5 1.2 0.5 1.2-2.2 1.7-3.6 2.1-5.8 0.6-2.9 3.7-2.8 3.3-0.6l-1.7 6.6c-1.5 4.4-6.8 4.1-8.5 2.2-0.8-0.8-0.6-1.7 0-2.7 1.2-1.3 2.2-2.7 3.1-4.4 1-1.2 2.5-0.6 2.1 0.9-0.4 1.2-0.9 2.3-1.6 3.3z"/>
			<path id="&lt;Path&gt;" class="s1" d="m174.4 819.2c-1.4-1.6 0.5-2.9 2.9-1.6 7.7 7.1 8.2 13.8 3.9 20.4-1.6 1.3-2.7 0.8-2.2-0.9 3.5-7 1.7-12.9-4.6-17.9z"/>
			<path id="&lt;Path&gt;" class="s1" d="m115.4 846c-0.5-1.4-1-2.6-1.5-3.6-0.6-1.3-0.4-2.2 0.5-2.7 0.4-0.2 0.9-0.5 1.4-0.8 1-0.6 1.8-1.2 2.4-1.8 1.5-1 3-0.4 3.2 1 0.1 0.7-0.1 1.1-0.6 1.7-1.6 2.1-3.5 2.6-2 5.3 1.1 1.9-0.8 3.5-2.2 2.8-0.8-0.4-0.9-1.1-1.2-1.9z"/>
			<path id="&lt;Path&gt;" class="s1" d="m120.8 849c-1.7-5.4-1-7.8 2.9-10 2.1-1.1 3.6 0.9 2.5 2.5-2.2 1.7-3.4 2.4-2.1 5.6 0.9 3.1-1.6 4.3-3.3 1.9z"/>
			<path id="&lt;Path&gt;" class="s1" d="m129.4 849.5c0.6 2.8-2.7 3.5-3.5 1.1l-0.8-4.5c-0.3-1.7 0.4-2.9 1.8-3.7l2-1.7c2.1-0.8 3.5 1.4 2.4 2.9l-1.6 1.4q-1.5 1.6-0.3 4.5z"/>
			<path id="&lt;Path&gt;" class="s1" d="m171.7 820c6.9 6.1 9.7 12.3 6.2 19-11.9 14.3-28.6 18.5-22 32.9 0.8 1.8 0 2.2-0.9 1.4q-9.6-11.6 4.1-24.1l13.4-11.8c3.9-5 1.8-9.3-3.1-13.3-2.3-2.8 0.1-5.5 2.3-4.1z"/>
			<path id="&lt;Path&gt;" class="s1" d="m158.2 863.6c2.5 11.7 8.3 6 19.8 7.1 13 2.8 14.7 17.2 6.1 23.1-1.9 1.3-5.7-0.7-2.8-3.3 8.1-6.6 3.2-14.4-3.4-16.3-11.5-1.7-22.3 1.2-21.9-10.6 0.1-2.2 2.3-3.2 2.2 0z"/>
			<path id="&lt;Path&gt;" class="s1" d="m163.4 840.7c-16.4 9.2-19.3 28.2-5 35.9 2.4 1.8 8.7 1.9 18.3 1.8 5.1 0.3 6.9 5.8 2.9 9.4-1.7 1.3-3.4 0.5-2-1.4 1.4-2.1 0.6-3.5-1.3-3.7l-14.4-0.5c-21.4-2.7-24-33.9-0.8-44.7 4.8-2.4 8.6-4.7 10.5-7.3 1.6-1.3 2.9-0.3 1.9 2.1-0.8 2.4-5.1 5.4-10.1 8.4z"/>
			<path id="&lt;Path&gt;" class="s1" d="m134 843.8c6 3.5 8.9 8.5 7.7 15.4-3.8 7.4-4.9 12.3-2 13.9q3.7 3.3 7.9 6c2.2 1.7 3.5 6.5 4.6 12.2 0.3 1.9 1.6 3.1 4.4 4.2 1.9 0.9 0.7 2.9-1.3 2.5-3.3-0.6-5.5-2.5-6.2-5.9-0.9-4.4-0.7-8.7-4.6-11.4-3-2-5.6-4-7.9-6-2.3-2.3-2.7-4.8-1.7-8.2 6.4-12.3 3-16.2-2.2-20.5-1.3-1.3-0.9-3.1 1.3-2.2z"/>
			<path id="&lt;Path&gt;" class="s1" d="m131.1 847c3 0.9 4.3 4 4.2 9 0 1.8-0.3 3.3-1 5-1.8 4.1-4.8 6.9-1.8 13.3q2.4 4 8.7 7.9 4.8 3.2 4.4 11.6c0.5 5 2.7 8 7.2 9.3 1.9 0.6 2.7 0.3 4.4-0.2 1.4-0.4 2.6 0 3.5 1.1 1 1.2 1.4 2.4 0.2 2.9-0.9 0.5-2.2 0.9-4 1q-13.8 0.1-14.7-15c0-4.7-2.1-7.4-5-9.3-3.9-2.8-6.6-5.5-8.3-8.3-1.8-3-1.4-6.8 0.8-11.3 3.1-6.5 3.8-11.2 0.5-14-1.8-1.8-1.3-3.4 0.9-3z"/>
			<path id="&lt;Path&gt;" class="s1" d="m163.7 904.6c0.8 0 1.7 0.2 2.9 0.8q0.7 0.7-0.2 1.4c-1.8 0.4-2.8-0.2-3.4-1.3-0.2-0.5 0-0.8 0.7-0.9z"/>
			<path id="&lt;Path&gt;" class="s1" d="m166.7 903.3c1.5-0.1 2.9 0.3 3.9 1.1q1.1 1.3-0.3 1.8-2.5 0.2-3.9-1.2-1-1.1 0.3-1.7z"/>
			<path id="&lt;Path&gt;" class="s1" d="m170.6 901.5c2.1-0.2 3.7 0.5 4.8 1.8q0.8 1.1-0.3 1.5c-2.3 0.4-4-0.2-4.9-1.9-0.4-0.8-0.2-1.2 0.4-1.4z"/>
			<path id="&lt;Path&gt;" class="s1" d="m176.9 890.3c0.6 0.6 0.5 1.2-0.1 1.8-0.4 0.4-1 0.8-1.4 1.2q-0.8 0.6-2 0.8-2 0.1-2.4-2.2c-0.6-2.6 0.5-4.6 2.6-6.1 0.5-0.3 1.1-0.7 1.6-0.9 1.1-0.2 1.6 0.7 1.2 1.9-0.6 1.3-0.5 2.4 0.5 3.5z"/>
			<path id="&lt;Path&gt;" class="s1" d="m162.1 898.3q-0.2 3 1.4 4.2 0.7 1-0.8 1.2-3.9-0.7-3.4-5c0.3-1.4 0-2.3-0.5-3-0.9-0.9 0.4-4.8 1.5-3.2 1.3 1.6 1.6 3.7 1.8 5.8z"/>
			<path id="&lt;Path&gt;" class="s1" d="m167.3 900.5c1.1 0.7 0.8 1.3-0.4 1.8-2.2 0.8-4.4-2.1-4.2-5.4 0.4-1.1 0-2-0.6-2.8-1.8-3.2-1.4-5.1 0.5-6.1q2.1-0.8 1.7 0.5c-0.2 1-0.4 2 0.6 3.2 1 1.5 1.2 2.9 0.6 4.3q-0.6 2.8 1.8 4.5z"/>
			<path id="&lt;Path&gt;" class="s1" d="m171 899c0.8 1 0.2 1.4-1.1 1.4-1.7-0.2-2.9-1.3-3.8-2.9-0.3-1.2-0.3-2.4 0.1-3.7 0.6-1.1 0.4-2.1-0.2-3-2.4-4.9 2-7 5.7-6.2 0.8 0.3 1 0.8 0.2 1.7-2.6 2.3-3.3 5-0.9 8.1 0.8 1 1 1.8 0 2.5-0.5 0.7-0.7 1.4 0 2.1z"/>
			<path id="&lt;Path&gt;" class="s1" d="m192.1 887.5c2.7 2.6 3.5 5.7 1.7 9.7-1.3 1.4-2.7 2.5-4.4 3.3q-2.2 0.7-3.5 2.3-1.4 1.6-3.4 2.6-1.5 0.8-3.2-0.2c-3.3-2.9-8.6-5.7-6.6-8.6q3-4.2 6.8-3.1c2 1 2.7 2.4 2.5 4.1q-0.3 1.5-1.7 0.7l-1.6-0.7c-1.1-0.4-1.6 0.2-0.9 1.2l2.3 2.1c1 0.8 1.8 0.5 2.5-0.4 1.4-1.6 3.9-3.1 6.9-4.6 1.5-0.9 1.8-2.1 1.2-3.5l-1.3-2.4c-0.6-1.7 0.9-3.7 2.7-2.5z"/>
			<path id="&lt;Path&gt;" class="s1" d="m192.3 906.1c-1.5-0.2-1.7 0.4-0.3 0.8 2.2 0.6 3.8 1.4 5.1 2.3 1.2 1.1-0.3 1.8-1.2 1.5l-4-1.7-5.7-1.6c-1.6-0.8-1.1-2.5 0.9-3.4 3.6-0.9 7.7 0.2 12 2.8 1.3 0.8 0.2 2-0.9 1.5-2.2-1.2-4.2-2-5.9-2.2z"/>
			<path id="&lt;Path&gt;" class="s1" d="m201.2 899.2c-1.6-0.7-5.3-1-3.8 2 1 1.3 2.8 2.4 5.1 3.4 0.9 0.7 0.3 1.8-1.2 1.7-2.8-0.8-9.4-2.6-7.5-6.7q0.7-1.3 2.3-2.2c1.2-0.8 2.5-1.3 3.9-1q1.2 0.3 2.2 1.3c0.8 1.1 0 1.9-1 1.5z"/>
			<path id="&lt;Path&gt;" class="s1" d="m199.9 899.8c1.9 0.7 3.7 1.5 5.3 2.6 1 0.4 0.8 2.1-0.4 1.9q-3.2-1-5.7-2.7c-0.7-0.7-0.4-2 0.8-1.8z"/>
			<path id="&lt;Path&gt;" class="s1" d="m209.7 904.4c1.5-0.2 1.9 1.7 0.4 2.3-3.3 1-6.1 2.5-8.1 4.7-0.6 0.8-0.8 2 0.6 1.6 3.6-1 6.8-1.7 8.7-1.3 1.6 0.3 1.6 2.1-0.1 2.2-2.7 0.1-5.4 0.6-8 1.7q-1.3 0.3-2.7 0.3c-2.3-0.2-3.3-2.1-1.6-4.7 2.9-4 6.6-6.1 10.8-6.8z"/>
			<path id="&lt;Path&gt;" class="s1" d="m211.3 909.8c-1.1 1.3-7.3 2-5.3-0.5 1-1.2 7.2-1.6 5.3 0.5z"/>
			<path id="&lt;Path&gt;" class="s1" d="m198.6 891.6l2.5 2.5c0.6 1 0.1 1.3-1.1 1.1-4.4-1.8-6-4.5-5.7-7.7 0.1-0.7 0.5-1 1.4-0.9 1.6 0.2 3 1.2 4.2 2.6 0.3 0.8 0.2 1.3-0.7 1.2q-1.4 0-0.6 1.2z"/>
			<path id="&lt;Path&gt;" class="s1" d="m200.2 884.3c1.5 6-8 1.9-7-7.7 0.1-0.6 0.4-1 1.1-0.7 1.1 0.8 2.1 1.7 1.8 4.2 0 2 1.4 3.4 1.7 2.3 0.1-0.4 0.3-0.6 0.8-0.3q1.1 0.9 1.6 2.2z"/>
			<path id="&lt;Path&gt;" class="s1" d="m203.9 889.8c0.2 3.5 1.1 6.7 3.4 9.1 0.8 0.8 1.4 0.3 1.4-0.5v-2.9c0-1 1.4-0.9 1.9 0q1.3 2.3 0.8 5.7c-0.4 1.5-1.6 2.6-3.5 1.6-4.4-3.1-5.9-8.8-6.7-15.2-0.3-2.6 3.1 0.7 2.7 2.2z"/>
			<path id="&lt;Path&gt;" class="s1" d="m214.8 901.1c0.1 4.1 0.3 8.2 2.3 11.7 1.1 0.7 1.4 0.2 1.5-0.9l0.2-3.7c0.4-1.5 1-1.4 2.1 0.9 0.6 3.2 0.4 9.1-4.3 7-3.8-3.5-4.3-9.6-4.1-16.3 0-2.5 2.2-1.4 2.3 1.3z"/>
			<path id="&lt;Path&gt;" class="s1" d="m215.5 904.4c0.3-1.4 1.7-1.1 2.2 0.1l0.4 3.1c0 4.2-3.7 1.2-2.6-3.2z"/>
			<path id="&lt;Path&gt;" class="s1" d="m205.5 892.6c1.1-2.1 2.8 0.8 2.7 2.1-0.2 2.8-3.3 0.4-2.7-2.1z"/>
			<path id="&lt;Path&gt;" class="s1" d="m231.8 790.9c3.1 0.1 6.2 0.7 7.9 5.4 0.9 3.4-2.2 4.5-3.9 3-0.9-0.6-0.6-1.2 0-1.2 1.5 0.1 2.3-0.2 1.8-1.7-1-2.9-3-3.6-5.2-3.7-2.1-0.2-1.9-1.5-0.6-1.8z"/>
			<path id="&lt;Path&gt;" class="s1" d="m234.1 794.5c2.4 0.2 1.6 3.4-0.1 1.7-0.7-0.9-0.6-1.4 0.1-1.7z"/>
			<path id="&lt;Path&gt;" class="s1" d="m236.7 801.4c3.2 0.3 5.2 2.1 5.7 6 0.4 2.5 0.2 4.5-1.3 5.5-1.2 1.1-5.4-0.7-5.6-1.8-0.3-1 0.3-1.6 1.5-1.2 1.7 1 2.7 0.6 3.1-1q0.1-5.1-3.6-5.4c-1.5-0.4-1-2.1 0.2-2.1z"/>
			<path id="&lt;Path&gt;" class="s1" d="m236.4 805.6c1.1-0.1 1.7 0.6 1.5 2.4q-0.6 1.4-2-0.2c-0.7-1.2-0.3-1.8 0.5-2.2z"/>
			<path id="&lt;Path&gt;" class="s1" d="m238.7 814.1c3.3 0.4 5.6 1.8 5 6-0.6 2.9-2.4 5.2-5.2 6.9q-1.5 0.6-1.6-1c-0.4-1.8 0.6-3.5 2.6-4.9 1-1.7 0.9-2.6-0.4-3.2l-2.5-1.2c-1.4-1.1-0.2-3.1 2.1-2.6z"/>
			<path id="&lt;Path&gt;" class="s1" d="m236.4 818.6q2.2-0.9 2.3 1.7c0 0.9-0.7 1.3-2.1 1-1.5-0.9-1.1-2.2-0.2-2.7z"/>
			<path id="&lt;Path&gt;" class="s1" d="m230.5 775.9c7.8-0.1 15.3 1.4 21.4 12 0.3 1.2 0 1.9-1.7 1.9-2.6-0.5-4.6-1.4-6-3-0.5-0.6-0.2-0.7 0.4-0.7q3.5 0.4 1.9-1.9c-3.1-4.4-8.1-5.7-14-5.4-2.4-0.2-4.4-2.7-2-2.9z"/>
			<path id="&lt;Path&gt;" class="s1" d="m238.9 781.6c1.9-0.1 3.4 0 4.3 0.5 1 0.7 1.4 1.4 0.3 2-1.2 0.4-2.6 0.2-4.3-0.5-1.2-0.7-1.3-1.7-0.3-2z"/>
			<path id="&lt;Path&gt;" class="s1" d="m249.6 779c2.1 0.7 4.2 2.4 6.2 4.9 1.4 1.3 2.7 1 1.9-1.5-0.4-0.7-0.1-0.7 0.6-0.5 2.7 1 4 3.1 4.3 6.1q0.1 2-2.6 1.2c-5.1-1.9-8.6-5.3-11.5-9.4-0.6-0.8-0.4-1.2 1.1-0.8z"/>
			<path id="&lt;Path&gt;" class="s1" d="m228 957.6c-1.5 4.3-2.2 8.9-2.3 13.7-0.1 0.9 0.2 1.5 1.3 1.6l5.5 0.4q1.7 0.1 2.2-1.9l2.4-5.9q2-4 6.8-3.9c7-0.6 12.9-2.4 17.4-5.5 1.9-1.4 2.9-3.9 3.5-6.8 0.9-2.3 4.4-1.8 4.1 0 0.6 5.4-1.6 8.5-8.1 12-1.4 1.6-1.6 3.1-0.3 3.7 0.8 0.2 0.3 0.6-0.4 1-1.2 0.7-2.8 0.3-4.5-0.9-0.3-0.5-1-0.8-2.5-0.7-3.3 0.6-6.4 1.1-9 1.6q-4.5 0.2-5.6 8.7c-0.1 1.8-1.3 2.6-3.1 2.6l-11.4-0.8c-1.9-0.4-2.3-1.7-2.3-3.6 0.4-9.7 1.7-15.9 3.8-19.6 1.5-3.5 3.7 1.7 2.5 4.3z"/>
			<path id="&lt;Path&gt;" class="s1" d="m258 946.7c-1.4 0.4-2.9 1.1-4.6 2.8-2.7 2-4.8-3.1-0.6-4.1 1.8-0.1 3.5 0.4 5.2 1.3z"/>
			<path id="&lt;Path&gt;" class="s1" d="m251.5 957.3c-4.3 1.1-4.5-4.4-1.3-3.8 2.3 0.8 3.9 0.9 5.4 0.8-1.1 1.6-2.5 2.4-4.1 3z"/>
			<path id="&lt;Path&gt;" class="s1" d="m250.3 944.2c-1.3 0.9-2.5 2-3.6 4.2-2 2.8-5.9-1.3-2-3.7 1.7-0.7 3.6-0.8 5.6-0.5z"/>
			<path id="&lt;Path&gt;" class="s1" d="m235.4 961c-0.9 1.2-1.8 2.6-2.1 5.1-1 3.2-5.7 0.4-2.9-3 1.4-1.2 3.1-1.8 5-2.1z"/>
			<path id="&lt;Path&gt;" class="s1" d="m285.1 960.7c-1.5 0-3.1 0.3-5.1 1.6-3.1 1.4-4-4.1 0.3-4.1 1.8 0.2 3.3 1.1 4.8 2.5z"/>
			<path id="&lt;Path&gt;" class="s1" d="m288.3 950c-0.9 1.2-1.3 2.5-1.6 5-0.9 3.3-5.7 0.6-3-2.9 1.3-1.2 2.7-1.8 4.6-2.1z"/>
			<path id="&lt;Path&gt;" class="s1" d="m295.5 952.4c-1.2 0.8-2.4 1.9-3.5 4.2-1.8 2.8-5.5-1.3-1.9-3.7 1.6-0.7 3.4-0.9 5.4-0.5z"/>
			<path id="&lt;Path&gt;" class="s1" d="m289.9 962.7c-4.3 1-4.5-4.4-1.3-3.8 2.3 0.8 3.9 0.9 5.4 0.8-1.2 1.6-2.5 2.4-4.1 3z"/>
			<path id="&lt;Path&gt;" class="s1" d="m243.5 956.2c-2.5 3.6-6.2-0.4-3.4-2.1 2.2-1 3.5-1.9 4.6-3 0.1 2-0.4 3.5-1.2 5.1z"/>
			<path id="&lt;Path&gt;" class="s1" d="m218.9 944.9c4.5-0.1 3.6 5.5 0.5 4.3-2.2-1.3-3.8-1.6-5.3-1.6 1.4-1.4 3-2.3 4.8-2.7z"/>
			<path id="&lt;Path&gt;" class="s1" d="m207.7 936.7c3.9 2.3 0.3 6.7-1.7 3.9-1.2-2.3-2.5-3.3-3.8-4.2 2-0.4 3.9-0.4 5.5 0.3z"/>
			<path id="&lt;Path&gt;" class="s1" d="m198.5 938c4.5 0.6 2.8 6-0.1 4.2-2-1.6-3.5-2.1-5-2.4 1.6-1.2 3.3-1.8 5.1-1.8z"/>
			<path id="&lt;Path&gt;" class="s1" d="m197.2 948c1.5 0 3.1-0.2 5.2-1.5 3.1-1.2 4.1 4.1-0.3 4.1-1.8-0.3-3.4-1.2-4.9-2.6z"/>
			<path id="&lt;Path&gt;" class="s1" d="m204.7 943c1.4 0.5 3 0.9 5.4 0.5 3.3 0 2.3 5.4-1.8 3.7-1.5-1-2.7-2.4-3.6-4.2z"/>
			<path id="&lt;Path&gt;" class="s1" d="m174.3 935.2c1.3 0.8 2.9 1.4 5.3 1.3 3.3 0.4 1.7 5.8-2.2 3.5-1.4-1.1-2.4-2.8-3.1-4.8z"/>
			<path id="&lt;Path&gt;" class="s1" d="m162.5 936.4c1.4 0.7 2.9 1.2 5.3 1 3.4 0.2 2 5.8-2 3.6-1.5-1.1-2.6-2.7-3.3-4.6z"/>
			<path id="&lt;Path&gt;" class="s1" d="m161.4 929.7c4.3 1.3 1.9 5.5-0.8 4.3-0.7 0.1-2.2-2.5-4.8-3.1 1.9-0.9 3.8-1.5 5.6-1.2z"/>
			<path id="&lt;Path&gt;" class="s1" d="m144.1 915.2c1.2 4.4-3.5 4.6-4 1.6-0.5-0.5 0.8-3.2-0.1-5.7 1.7 1.1 3.3 2.4 4.1 4.1z"/>
			<path id="&lt;Path&gt;" class="s1" d="m137.2 912.1c1.3 4.4-3.5 4.6-4 1.6-0.4-0.5 0.9-3.1-0.1-5.7 1.8 1.1 3.4 2.4 4.1 4.1z"/>
			<path id="&lt;Path&gt;" class="s1" d="m130.5 915.6c2.1 1.9 4.7 2 5.3 2.2 3.1 1.3 1 5.6-2.4 3.6-1.3-1.2-2.6-3-2.9-5.8z"/>
			<path id="&lt;Path&gt;" class="s1" d="m139.4 920.8c1.9 2.1 4.5 2.4 5.1 2.7 2.9 1.6 0.4 5.7-2.8 3.4-1.2-1.4-2.3-3.3-2.3-6.1z"/>
			<path id="&lt;Path&gt;" class="s1" d="m224.6 932.8c1.2 0.2 1.9 0.7 1.8 1.7-0.1 1.2-0.1 2.5 0 3.8q0.1 1.8-1.2 1.9c-2.3 0-4 0.5-3.6 2.5q0.8 2.9-1.5 1.6c-5.1-3.7-2.3-12.2 4.5-11.5z"/>
			<path id="&lt;Path&gt;" class="s1" d="m228.7 943.6c1-0.8 2.3-1.3 3.1 0.1 0.6 0.9 1.2 1.8 2.3 2.8 0.8 1.1 0.3 2.1-0.3 2.7-1.7 1.3-2.8 2.3-0.2 4.5 0.9 0.5 0.1 1.3-1.3 1.3-5.6 0.3-8.7-7.6-3.6-11.4z"/>
			<path id="&lt;Path&gt;" class="s1" d="m272 942.9c1-1 1.8-0.8 2.7-0.2 5.9 4.4 1.4 13.6-4.4 11.3q-0.9-0.4-0.3-0.8 3.2-2.7 0.2-4.6-1.6-0.9-0.7-2.6 1.2-1.3 2.5-3.1z"/>
			<path id="&lt;Path&gt;" class="s1" d="m258.1 930c2.7 0.7 3.7 5.7 8.7 5.2 2.9-0.1 5.6 2.9 4.7 6q-1.3 3.3-6.1 5.5-2.3 1.2-4.5-0.5l-2.9-2.7q-1.3-0.9-1.9-0.3c-0.7 0.3-1 0-0.9-1.2 0.2-1.1 0.2-1.9-1-0.8-1.6 1.9-3 2.3-4 0.2-0.4-1.4-0.3-2.5-1.5-1.6-1.4 1.5-2.9 3-4.7 4.1-1 0.6-1.7 1.2-1.9 1.8-1.2 2.5-3.6 3.4-5.7 2.1-2.4-1.7-3.3-3.1-3.3-4.2-0.3-2.6 0.7-4 2.3-4.8 2.8-1 5.1-2.1 6.9-3.4q1.3-0.9-0.2-1.3c-1.7-0.3-3.9 0-6.3 0.9-0.6 0.2-1 0.6-1.1 1-0.2 2.3-1.2 3.6-2.6 4.4-1.3 0.7-2.4 0.9-3.1-0.1q-0.4-0.7-0.6-1.5c-0.2-1.5-0.1-3 0.1-4.4q0.2-0.9 0.6-1.8c0.9-1.4 2.3-1.7 4-1.3 2.2 0.7 4.5 1 7.1 0.4 2.2-0.6 4.2-0.7 5.8 0.2 0.8 0.7 1.2 1.6 0.6 2.4-1.7 2.2-3.9 4-6.7 5.8-1.1 1-0.8 2.5 0.9 1.1 2.5-2.7 5.2-5 8-6.6 0.7-0.2 1.2-0.3 1.4 0 0.4 0.3 0.8 0.4 1.4-0.4 0.5-0.8 1.2-1.4 2-1.8 0.5-0.2 1.1-0.3 1.6 0.1 1.8 1.9 3.6 4 5.3 6.8 0.7 1.5 1.5 2 2.5 1.5 2.1-0.9 2-1.9 0.5-3-1.7-0.8-3.3-1.8-4.6-2.8-1.6-1.4-2.3-2.8-2.6-4.1-0.2-1.1 0.6-1.3 1.8-0.9z"/>
			<path id="&lt;Path&gt;" class="s1" d="m233.7 919.4l4.4 6.6c0.6 0.8 1.1 0.7 1.7 0 0.5-1 1.5-0.5 1.7 0.7 0.6 3.8-2.9 4.5-5 1.8l-5.2-7.6c-0.8-1.8 1.4-2.7 2.4-1.5z"/>
			<path id="&lt;Path&gt;" class="s1" d="m238.9 916.8c1.4 0.5 2.7 1.7 3.9 4.2l4 6.4c1.3 1.4 3.2 0.2 2.1-2.7-0.9-2-1.6-3.7-2.6-5.3-1.2-2.2-1.3-3.9-0.9-5.3q0.9-2.4 1.8-0.2l4 10c0.8 2.4 1.1 4.7 0.6 6.8q-0.7 2.8-3.2 1.9c-5.8-3.3-7.4-9.2-11.3-14.6q-1.2-2.3 1.6-1.2z"/>
			<path id="&lt;Path&gt;" class="s1" d="m242.9 919.2c-0.4-1.2 0.6-2.2 1.5-1.2l3.1 5.3c1.2 1.8-1.2 2.7-1.6 1.7z"/>
			<path id="&lt;Path&gt;" class="s1" d="m254.6 922.5c0.5 0.9 1.6 1.1 1-1.1l-1.9-5.8c-0.6-1.9-0.3-3.3 0.4-4.5 0.9-1 1.9-0.7 1.7 0.8 0 1 0.2 2 0.7 3.2 1 3 1.9 6.6 2.2 11.5 0.1 1.7-1 1.9-2.6 1.4-3.7-2.3-5.1-7.5-6.3-13.1 0-0.7 0.1-1.1 1.3-0.8 0.7 0.3 1.5 0.7 2 3.2 0.3 2.1 0.7 3.9 1.5 5.2z"/>
			<path id="&lt;Path&gt;" class="s1" d="m250 883.5c3.1 6.5 5.2 22.1 2.7 26.5q-1.5 2.8-4 1c-2.8-2.6-5-10.3-7.8-16.4-0.8-1.8-0.9-3.2-0.6-4.2q0.6-2.3 1.7-0.8c2.3 4.8 4.2 11.4 6.6 15.6 0.7 1.2 2.2 1.4 2.2-0.8 0.6-7.2-0.9-13.1-3.3-18.4-0.8-1.6 1.6-4.6 2.5-2.5z"/>
			<path id="&lt;Path&gt;" class="s1" d="m242.8 888.4c-0.7-1.4 0.2-2.8 1.8-1.9 3.1 3.1 5 7.4 5.1 13.8-0.2 1.7-1.5 1.7-1.9 0.6-1.2-5-3-9-5-12.5z"/>
			<path id="&lt;Path&gt;" class="s1" d="m230.1 895.6c2.8 4 5.4 10.7 9.4 15 0.9 1.1 2.3 0.8 1.8-1.5-1.3-5.6-3.9-9.5-5.4-14.9-0.4-1.9 2.2-2.8 3.1-1.5 4.1 7.5 6 14.4 5.4 20.5-0.6 2.8-2.9 3.1-4.3 2.2-5.9-5.8-9.8-11.8-12.5-18-0.9-2.2 0.6-4.2 2.5-1.8z"/>
			<path id="&lt;Path&gt;" class="s1" d="m230.2 891.3q5.8 4 8.4 13.9c0.4 2-0.9 2.4-1.5 1.2-2.6-6-5.3-10.2-8-13.9-0.7-0.9 0-1.8 1.1-1.2z"/>
			<path id="&lt;Path&gt;" class="s1" d="m216.4 896c4.3 4.9 8.6 10.1 12.6 16.4 1.1 1.3 3.2 0.5 2.1-2.3-2.4-4.5-5-8.4-7.8-12-0.8-0.7 0.1-2.2 1.8-0.9 4.4 5.2 8.7 10.4 8.9 16.4-0.1 3.9-3.2 4.6-5.7 1.8-4.5-6.7-9-12.4-13.5-17.9-1.4-1.4 0.3-2.8 1.6-1.5z"/>
			<path id="&lt;Path&gt;" class="s1" d="m219 894.1l10.3 14.3c1.1 1.8-0.2 2.3-1.1 1.4l-10.5-13.6c-0.8-1.8 0.1-3.4 1.3-2.1z"/>
			<path id="&lt;Path&gt;" class="s1" d="m264.5 784.9c1.1 0.8 1.9 2 2.2 3.8 0.2 1.8 3 2.4 2.9-0.3-0.1-0.5 0.2-0.6 0.8-0.2 2.5 1.3 3.3 4.1 1.5 5.9-1.4 1.5-5.8-2.3-7.4-3.7-0.6-0.7-0.6-1.4-0.4-2.1 0.3-1.5 0-2.2-0.3-2.9-0.5-0.8-0.5-1.2 0.7-0.5z"/>
			<path id="&lt;Path&gt;" class="s1" d="m249.4 796.7c4.1 1.4 5.7-3-1.4-3.5-1.7-0.5-2-2.7-0.7-2.4 1.4 0.2 2.7 0.3 3.8 0.2 0.6-0.1 1-0.3 1.1-0.6 0-0.5 0.6-0.4 0.9 0 2.8 2.7 1.6 2.9 2 3.3 4 7.9-2.5 8.2-6.2 4.4-0.6-1.4-0.2-1.6 0.5-1.4z"/>
			<path id="&lt;Path&gt;" class="s1" d="m251.9 809.7c2.4 3.9 6-2.3 0.1-4.6l-2-1.8c-0.8-1 0.3-2.4 1.2-1.7 1.3 0.8 2.7 1.5 4.4 0.7 1-0.5 1.9-0.8 1.8 1.1-0.1 2.5 0.1 5.2 1.5 8.5 2.2 6.3-4.7 6.1-7.8 0-0.7-1.9 0.2-3 0.8-2.2z"/>
			<path id="&lt;Path&gt;" class="s1" d="m243 847.1c5.1 8.5 8.3 16.2 8.3 22.7-0.2 2-1.3 3-2.7 1.2-2.2-3.7-6-11.8-8.9-16-0.8-2.2 0.6-3.9 1.7-2.4 2 2.9 3.8 6.2 5.3 9.9 0.5 1.2 1.3 0.9 0.9-0.5-1.7-5.3-3.6-9.2-5.7-12.5-0.9-1.3 0.3-3.4 1.1-2.4z"/>
			<path id="&lt;Path&gt;" class="s1" d="m239.1 856.6c3.6 5.8 6.7 11.4 8.5 16.4 3.3 9-3.5 15.1-7.5 8.9-2.7-4.9-4.9-10-7-15.1-0.9-2.4 0.9-3.9 2.1-2.3 2 4.8 4 9.6 6.8 14.3 1.4 2.5 4.7 0.6 3.1-3.6-2.2-6.1-5-11.4-8-16.3-1.1-2.5 0.9-3.7 2-2.3z"/>
			<path id="&lt;Path&gt;" class="s1" d="m235.6 863.7c-0.8-1.8 0.9-5.5 1.9-2.9l6.1 12.2c1.2 2.4-1.5 3.4-2.2 2.3z"/>
			<path id="&lt;Path&gt;" class="s1" d="m232.6 867.6c1.4 4.6 3.5 9.4 6 14.3 3.9 7.9-4.5 13.3-8.6 6.8l-9-15.3c-1.5-1.8 1.3-3.9 2.6-2 3 4.7 5.8 11.1 8.9 15 1.8 2.7 5.3 1.1 3.5-2.8-2.6-5.3-4.9-10.5-6.5-15.2-0.9-1.7 2.1-4 3.1-0.8z"/>
			<path id="&lt;Path&gt;" class="s1" d="m226.9 866.9l6.9 14.5c1.5 3.4-0.9 3.7-2 1.9l-6.6-13.1c-0.9-1.5 0.2-2 0-2.7-0.3-1.4 1.1-2.1 1.7-0.6z"/>
			<path id="&lt;Path&gt;" class="s1" d="m219 873.2c3 4.9 6.7 10.7 8.3 16.5 1.7 7.5-5.3 6.8-7.3 4.2q-7.6-8.6-12.6-17.3c-1.2-2.2 1.3-3.3 2.6-1.9 3.5 5.4 7.3 10.8 11.9 16.2 1.4 1.9 3.3-0.2 2.3-2-2.4-5.7-5.2-10.6-8.1-15.1-1.5-1.8 1.8-2.2 2.9-0.6z"/>
			<path id="&lt;Path&gt;" class="s1" d="m212.1 871.2q5 6.8 9.5 14.6c0.8 1.5-0.1 2.7-1.3 1.6q-7.1-7.3-9.6-14.8c-0.3-1.2 0.7-2.4 1.4-1.4z"/>
			<path id="&lt;Path&gt;" class="s1" d="m204.3 875.3c4.7 5.5 8.6 11 11.2 16.5 0.8 2.1 0 2.9-2 2.6-8-2.8-14.2-13.2-19-20.9-1-1.9 1.6-3.6 2.8-1.9 3.5 5.4 7.2 10.8 11.5 16.2 1.1 0.8 1.5 0.1 0.9-0.9-2-3.3-4.6-7-7.4-10.8-1-1.7 1-2.1 2-0.8z"/>
			<path id="&lt;Path&gt;" class="s1" d="m235.3 820.9l0.3 12c0.1 3-1.5 5.3-3.8 7.3-1.6 0.9-1.9-0.2-1.3-2.6 0.7-2 2.4-2.3 2-5.5 0.1-3.5 0-7 0-10.6-0.1-2.4 2.3-3.2 2.8-0.6z"/>
			<path id="&lt;Path&gt;" class="s1" d="m231.1 822.7c0.2 5.1 0.1 10.3-1.3 16-2.1 5.9-8.9 7.3-10 1.8-0.2-5.4 0.6-10.4 2.3-15.1 0.6-1.3 2.3-1.4 2.2 0.4-0.8 3.8-1.4 7.7-1.4 12.2 0.2 2.9 2.2 2.2 4.1-1 1.4-3.3 1.5-8.5 1.4-14.4-0.1-2.1 2.6-3.1 2.7 0.1z"/>
			<path id="&lt;Path&gt;" class="s1" d="m227.2 823.3c0.4 4.9 0.2 9.3-0.9 12.9-0.3 1.3-1.8 1.3-2 0l0.9-12.9c0.3-1.4 1.6-2 2 0z"/>
			<path id="&lt;Path&gt;" class="s1" d="m219.9 827.7l-2.1 12.5c-0.5 3.3-3.3 5-7.9 5.4-2.4 0-4.3-0.7-5.4-2.2-0.3-1.4 0-2.1 0.5-3.3 1.5-4.2 3.1-7.4 4.2-11.1 1.1-2.3 2.9-1 2.5 0.5l-2.8 9.4c-0.7 1.8-0.7 3.1 0.9 3.2q4.2 0.4 5.3-5.3l1.8-9.4c0.7-2.7 3.1-2 3 0.3z"/>
			<path id="&lt;Path&gt;" class="s1" d="m215.5 827.4c-0.4 3.6-0.9 7.1-1.7 10.4-1.1 2.6-3.1 1.6-2.6 0 0.9-3 1.5-6.5 2-10.2 0.3-1.3 2.3-2.1 2.3-0.2z"/>
			<path id="&lt;Path&gt;" class="s1" d="m207.5 830.8l-3.7 10c-1.9 3.1-4.4 3.5-7.4 2-2.4-1.4-2.2-3.3-0.9-5.4q2.9-4.6 5-9.4c0.5-1.4 2.3-1.3 1.8 0.8q-1.6 4.6-4 8.8c-1.3 2.4 1.2 3.9 3 1.7 1.6-2.7 3.2-6 4.7-9.7 0.5-1.4 2-0.9 1.5 1.2z"/>
			<path id="&lt;Path&gt;" class="s1" d="m204.8 829.8c-0.5 2.8-1.8 5.6-3.7 8.4-1.2 1.4-2.5 0.3-1.9-1.2 1.5-2.6 2.8-5.3 3.6-7.9 0.1-1.1 2-1.7 2 0.7z"/>
			<path id="&lt;Path&gt;" class="s1" d="m198.5 829.4c-0.9 2.9-2.3 5.2-4.2 7.2-1.5 0.7-2-0.6-1.3-1.6 1.4-1.9 2.7-4 3.9-6.3 0.5-1.1 1.9-0.8 1.6 0.7z"/>
			<path id="&lt;Path&gt;" class="s1" d="m191.7 835.4c-0.5 0.8-0.8 1.5-0.1 2l1.5 1.3c0.9 1.1-0.2 2-1.3 2.1-1.6-0.3-2.8-1.3-3.6-2.6-0.6-1.2-0.1-2.2 0.7-3q2.5-2.7 5.1-6.3c0.8-1.5 2.6-0.5 1.4 1.7q-1.2 2.2-3.7 4.8z"/>
			<path id="&lt;Path&gt;" class="s1" d="m195.1 845.3c-3 4-3.9 9.2 0.2 19.7 1 3-0.4 4.7-3.3 5.7q-3.8 0.9-4-1.1 0-3.7-0.7-5.4c-1.2-3.6-2.8-6.1-3.5-9.7-0.5-4.8 0.1-8.3 3.5-12.9 1.2-1.7 4.3-0.5 2.8 1.8-2.3 3.9-3.2 5.5-3.1 9.2 0.2 3.2 1.7 6.3 2.9 11 0.7 2.1 2.1 1.1 1.7-0.3-0.9-4.7-2.5-8.2-2.4-11.5 0.3-4.3 1-6.3 3.3-8.4 1.4-1.6 3.6 0 2.6 1.9z"/>
			<path id="&lt;Path&gt;" class="s1" d="m199.6 847.2c-2.8 5.3-3 11.8 2 20.6 1.5 2.2 4.1 0.8 3.6-2-1.8-7.7-1.2-13.1 0.5-17.5 0.7-1.7 4-1.3 3.2 1-1.3 4.8-1.7 9.7-0.2 15.6 0.4 1.6 1.1 3 0.8 4.7-0.8 4-6 5.3-9.4 2.3-2.9-4.1-4.6-8.1-5.2-11.9-0.8-5.1-1.3-9.8 1.8-14.7 1.4-2.1 4-0.6 2.9 1.9z"/>
			<path id="&lt;Path&gt;" class="s1" d="m204.4 847.1c-1.8 2.7-2.6 7.3-0.7 16.1 0.6 2.5-1.2 2.5-1.9 1.5-3.1-7.4-2.6-13.4-0.3-18.7 1-2 3.6-1 2.9 1.1z"/>
			<path id="&lt;Path&gt;" class="s1" d="m222.5 847.3c-0.7 5-0.6 10.9 0.3 17.8-1.2 8.2-11.2 6.8-12.6 0.1-1.1-6-1.2-11.8 0.5-16.8 0.4-1.7 3.1-1.9 3.1 0.4q-1.9 9.1 0.5 15.4c1.2 1.9 2.7 2.1 3.6 1 1-1.1 0.3-3.2 0.3-4.5-0.3-5.6 0.1-10.4 1.2-14.4 0.3-1.8 3.3-1.2 3.1 1z"/>
			<path id="&lt;Path&gt;" class="s1" d="m217.6 847.2q-0.8 7.4-0.2 14c-0.2 2.3-2.6 2.2-3 0.5-0.4-5.1-0.1-9.9 0.9-14.6 0.5-1.6 2.4-1.4 2.3 0.1z"/>
			<path id="&lt;Path&gt;" class="s1" d="m231.3 842.8c2.8 6.4 4.4 12.4 2.9 17.3-2.7 5.5-6.6 6.5-8.9 3.5-2.5-5-2.4-10.8-2.2-16.7-0.1-2.1 2.8-2.3 3.2-0.2-0.2 3.8-0.2 7.6 0.8 12 0.6 2 3.1 1.9 3.7-0.5 0.5-4.4-0.2-8.4-1.4-12.4-0.4-2.3 0.3-4.7 1.9-3z"/>
			<path id="&lt;Path&gt;" class="s1" d="m228.8 845.4c0.2 2.9 0.5 6.1 1 9.9 0 2.5-2.1 1.2-2 0.4-0.8-3.5-1-7.1-1-10.6 0.1-1.4 1.6-1.8 2 0.3z"/>
			<path id="&lt;Path&gt;" class="s1" d="m237.9 837.6c2.8 3.9 3.7 8.3 1.2 13.4-1 1.2-1.9 1.5-3 0.7-2.1-2.9-3.3-5.9-3.7-9-0.3-1-0.1-1.8 0.9-2.3 1-0.6 2-0.8 2.8 0.2l0.4 1.7q0.4 1.2-0.7 1.1c-1.2-0.7-0.5 3.2 0.9 3.3 0.9 0.4 1.2 0.1 1.3-0.6 0.2-3-1.7-4.6-1.6-7.8q0.3-2 1.5-0.7z"/>
			<path id="&lt;Path&gt;" class="s1" d="m242.3 835.3c2.2 1 3.1 4.8 5.1 5.1 0.7-0.1 1.3 0.8 0.5 1.6l-2.2 2.7c-1.7 1-2.6 0.5-3.2-0.6-0.4-0.7-0.6-1.2 0.2-1.7 1.9-1.9-1.3-3.9-2-5.8-0.7-1.1 0.5-1.8 1.6-1.3z"/>
			<path id="&lt;Path&gt;" class="s1" d="m249.2 828.1c1.4 1.4 2.8 2.9 4.9 3.1 1.2 0 1.4 0.6 1.2 1.8-1.1 2.9-3.3 3.8-5.1 6.2-1.1 0.9-2.1 0.6-3.1-0.2-1.5-1.4-2.7-2.8-3.7-4.3-0.8-1.1 0.3-2.8 1.7-2l2.6 2.3c1 0.8 2.6-0.6 1.8-2.1l-2.4-2.9c-0.7-1.4 1.1-2.9 2.1-1.9z"/>
			<path id="&lt;Path&gt;" class="s1" d="m252.8 824.1c2.1 2.3 3.6-0.9 2-3l-2.3-2.2c-0.7-0.6-0.7-1.6-0.4-2.7 0.2-0.7 0.4-0.9 0.9-0.4 1.4 1.3 2.9 2.5 4.5 3.4 0.5 0.3 1.3 0.5 1.7 0.9q0.4 0.5 0.2 1.5-0.5 4-1.9 6.6c-2.1 3.1-4.5 2-7.1-1.1-0.7-1-0.6-2.1 0.7-3.2 0.6-0.6 1.2-0.7 1.7 0.2z"/>
			<path id="&lt;Path&gt;" class="s1" d="m270.4 956.4c3.2 0.9 6.2-0.7 8.9-5.3 2.2-3.6 0.2-6 1.9-8.1 1-1.5 1.3-1.4 1.6 0 0.9 1.9 2.2 2.3 4.1 0.6 1.2-1.8 1.1-3.4 4-4.5 1.5-0.5 1.2-0.5 1 1.3 0 4.2 4.5 1.7 4.7 4 1.1 3.1-1.5 4.8-3.2 2-4.7-2.4-9 3.2-13.2 9.2-3.4 4.2-7.2 5.1-11.4 3.6-1-0.6-0.3-3.5 1.6-2.8z"/>
			<path id="&lt;Path&gt;" class="s1" d="m265.4 960.9c10.4 1.9 16.8 7.2 32.9-0.7q1.2-0.5 1-1.8c0.2-1.6 0.8-2.6 3.3-3 1.5 0.1 1.6 0 1.2 1q-1.7 3.7 2.6 3.2c1.3-0.1 0.9-0.4 0.7 1.2-0.4 1.2-1.6 2-4.4 2.1q-1-0.1-1.5 0.5c-1.8 1.5-3.5 2.2-5.1 2.6-0.7 0.2-0.8 0.3-0.7 1.1 0.3 1.1 0.8 1.5 1.4 1.6 1 0 0.7 0.3-0.1 1-1.8 1.4-4.1 0.7-6.4-1.1-0.4-0.6-1-0.5-1.5-0.4-4.4 0.8-8.9 0.6-13.3-0.2-0.9-0.3-1.2-0.3-1.4 0.3-0.3 0.6-0.2 1.9 0.4 2 0.7 0.1 0.3 0.4-0.7 0.7-2.1 0.4-3.3-0.9-3.9-3.5 0-1.3-0.9-1.8-2.2-2.1l-4.6-1.7c-1.2-0.9-0.8-2.6 2.3-2.8z"/>
			<path id="&lt;Compound Path&gt;" fill-rule="evenodd" class="s1" d="m308.7 951.3c-4.8 4.4-8.6 4.5-11.9 2.4-2.6-4-0.2-7.3 3.6-10.5 5.5-4.4 11.9 2.8 8.3 8.1zm-7.3-5.6q-3.8 3.4-1.9 5.1c2.1 0.9 5.1 0.1 6.9-2.3 1.3-3.4-2-5.4-5-2.8z"/>
			<path id="&lt;Path&gt;" class="s1" d="m312.5 946.5c1-0.4 1.9-0.7 2.8-0.8 0.9-0.2 1.6 0 1.7 1.4q-0.2 0.9 0 1.9 0.1 1.6-1.5 1.4c-0.7-0.1-1.7-0.3-3.3-1-1.2-0.5-1-2.6 0.3-2.9z"/>
			<path id="&lt;Path&gt;" class="s1" d="m312.1 940c1-0.9 1.3-0.7 2 0.1q0.3 0.7 1.5 2.1c0.4 0.7 0.3 1.1-0.2 1.6-1.6 1.1-2.8 1.6-3.8 1.7-1.9-0.3-2-1.4-1.7-2.8 0.2-0.6 0.8-1.5 2.2-2.7z"/>
			<path id="&lt;Path&gt;" class="s1" d="m307.8 936.6q0.8-1.5 2.2-0.2 0.4 0.5 1.4 1.3c0.6 0.5 0.9 1.1 0.3 1.7q-0.9 1.4-2.5 1.9c-2.2 0.4-2.8-0.6-2.5-2.5q0.4-1.2 1.1-2.2z"/>
			<path id="&lt;Path&gt;" class="s1" d="m317.8 935.9c0.1-1.6 2.7-2.6 4.5-0.3 1.7 1.8 0.8 4.9-1.2 4.7-1.7-0.4-2.7 0.1-3.4 1.1-1.9 1.3-3.4-2.2-1.9-3.1q2-0.8 2-2.4z"/>
			<path id="&lt;Path&gt;" class="s1" d="m215.5 940.1c-12.4-8.7-21.8-12-25.3-4.9l-3.1 8.8c-0.3 2 0.1 3.7 2.1 4.6 12.3 5 22.8 8.2 32.6 2.8 1.2-0.6 1.8-0.1 1.6 1.3-0.2 1.5-0.6 2.4-1.6 3.3-2.1 0.9-2.8 1.2-3.7 2.5-1.2 2.9-3 3.9-5.4 3.5-1.1-0.2-0.9-0.5-0.2-0.8 1-1.1 0.3-1.8-1.1-2.4-5.9-2.4-6.3 3.1-11.2 1.9-1.3-0.5-1.2-0.8-0.4-0.8 3.3-1.7 1.2-3.2-3.8-4.6q-2.2-0.7-3.9 0.7c-1.6 1.2-3.3 2-5.6 0.9-0.9-0.7-0.9-1-0.1-0.9 2.7-1.4 1.7-2.7-1.9-4.1-2.7-2.8-2.6-5.4-2.1-7.9l3.7-10.8c0.8-2.5 0-3.9-1.5-4.9-1.2-0.3-0.8-0.6-0.2-1 4.1-1.2 4.8 2.3 7.4 1.1q0.9-0.4 2.2-0.4c1.7-0.6 1.5-1.7 0.8-2.5-1.8-1.6-1.9-1.4-0.5-1.6 5.7-0.8 3.8 6.3 12.4 7.2 0.6 0 1.1 0.2 1.5-0.6l0.2-2.1c0.1-1 0.4-1.1 1.1-0.8 1.3 0.5 2.6 1.5 2.8 4.5-0.2 1 0.3 1.8 1.1 2.6l3 2.6c1.1 1.3 0.6 4.2-0.9 2.8z"/>
			<path id="&lt;Path&gt;" class="s1" d="m177.5 930.7c-1.1-1.1-0.2-2.9 1.6-2.1q3.3 2 5.2 5.4c0.7 1.4-0.8 2.7-1.9 1.8-1.6-2.3-3.3-3.9-4.9-5.1z"/>
			<path id="&lt;Path&gt;" class="s1" d="m179.5 941.8c2.2-0.8 2.9 2.2 0.7 3.8-3.6 1-7.9 1.3-12.6 1-0.6-0.1-1.3 0-1.7 0.4q-2.9 2.2-6.2 0.7-0.8-0.3 0.2-0.6c1.8-1.1 1.4-1.8 0-2.5l-7.1-3.4c-0.5-0.3-1-0.2-1.5 0.2-2 1.2-3.8 0.8-5.6-0.2q-1.3-0.9 0.1-1c2-0.3 2-2.2 2-4.9 0.6-5.3 2.5-10 6.5-13.9 1.4-1.3 1.2-2.5 0.1-3.6q-0.8-0.2 0.2-0.4c3.2-1.1 4.1 3.9 8.1 3.3 0.5-0.3 0.8-0.4 1 0.7-0.1 2-2 2.5-5.2 2-0.4 0-0.9 0.2-1.3 0.8-2 2.3-3.4 5.3-4.5 8.8-0.4 2.1-0.2 3.5 1 3.9 7.5 4.9 15.6 7.9 25.8 4.9z"/>
			<path id="&lt;Compound Path&gt;" fill-rule="evenodd" class="s1" d="m176.2 927.6q-2.7 7.9-8.7 5.9c-3.7-2.9-4.1-10.6-1.1-13.4 3-3.2 11.8-1.2 9.8 7.5zm-8.2-5.1c-1.1 1.7-1.3 3.9-0.4 6.8 2 1.5 3.6 0.7 4.7-2.9 1.5-4.7-2.6-6.1-4.3-3.9z"/>
			<path id="&lt;Path&gt;" class="s1" d="m177 915.7q1-1.5 2.1-0.8l1.8 1.3q1.2 1 0.5 2.4-1.5 1.5-3.2 1.7-1.8 0.2-2.2-1.6-0.1-1.7 1-3z"/>
			<path id="&lt;Path&gt;" class="s1" d="m171.5 913.6c-0.1-1.5 0.6-1.8 1.7-1.5l2.2 0.8q2 0.6 0.8 2.6c-0.5 0.7-1 1.2-1.5 1.7q-2.1 1.4-3.1-0.5z"/>
			<path id="&lt;Path&gt;" class="s1" d="m165.7 914.9c-0.5-2.1 0.2-2.3 1.1-2.5 0.7 0 1.4 0 2.2-0.2q1.7-0.6 1.6 1.8 0 0.7-0.1 1.2c0 0.7 0 1.1-0.4 1.7-1.6 2.8-3.8-0.1-4.4-2z"/>
			<path id="&lt;Path&gt;" class="s1" d="m146.2 932.4c-2.1 0.5-4.5 0.1-7-0.7q-1.1-0.4-1.6 0.4c-1.8 1.9-3.7 1.9-5.8 0.6-1-0.5-0.7-0.8 0.1-1q2.6-1.4 0.5-2.5l-3.1-2q-0.9-0.7-1.9-0.4-3.3 0.1-4.8-1.7-1.4-1.5 0.1-1c2.1-0.2 3.1-0.7 1.6-2-1.2-1.2-2.1-2.4-2.7-3.7-0.3-1-0.9-1.3-1.7-1.3-2.2-0.7-3.1-2.4-3.3-4.7 0-1.4 0.2-1.8 1-0.7 1.6 1.2 2.7 1.2 3.3-0.4 2.4-4.8 6.1-7.7 10.8-9.4 2.5-0.7 3.6-2.2 3-4.4-0.4-0.8-0.7-0.9 0.7-0.8 1.5 0.4 3 0.5 3.5 4.4-0.2 0.6 0.1 1.2 1.1 1.8 2.1 1.5 4.3 3.6 6.9 7.5 1.2 2.2 2.4 2.2 3.6-0.9 0.1-1 0.4-0.6 1 0.1 1.7 1.7 1.8 4-0.7 7.1-0.3 0.4-0.3 1.1-0.1 2.2l0.6 3.2c-0.4 2.4-2.9 2.5-3.1-0.2-1.8-5.3-4.1-10.6-9.7-15.8q-2.2-1.9-5.2-0.4c-2.9 1.3-5.3 3.1-7.1 5.6-1.1 1.6-1.3 3.2-0.3 5 3.9 6.8 10 11.7 19.9 13.4 1.8 0.2 1.8 2.1 0.4 2.7z"/>
			<path id="&lt;Compound Path&gt;" fill-rule="evenodd" class="s1" d="m124.7 903.9c-6.2-1.7-9.2-7.8-7.5-11.7 2.4-4.1 7.3-5 11.1 0.6 3.4 5.1 1.6 11.9-3.6 11.1zm0.4-8.9c-1.6-4.3-5.2-3.2-5.5-0.3 0.5 2.7 1.8 4.7 4.1 5.7 2.2 0.2 2.9-1.3 1.4-5.4z"/>
			<path id="&lt;Path&gt;" class="s1" d="m120.6 884.2c-0.2-1.2 0.1-2 0.9-2.3 1.1-0.2 2.2-0.2 3.4 0.3 0.6 0.2 1.1 0.7 1 1.8q-0.2 1.7-0.8 3c-2.2 2.7-4.2 0.5-4.5-2.8z"/>
			<path id="&lt;Path&gt;" class="s1" d="m115.2 885.9c-2.2-2.8 5.2-5 5-1.8 1.1 5.6-2.3 6.5-5 1.8z"/>
			<path id="&lt;Path&gt;" class="s1" d="m111.1 889.8c3.7 3.6 8.2 1.4 3.6-3.5-1.4-2.1-5.3 2.5-3.6 3.5z"/>
			<path id="&lt;Path&gt;" class="s1" d="m114 881q0.1-1.1-1.2-1.5c-7.5-4.5 5.6-9.4 4.3-2.1-0.4 0.7-0.4 1.3-0.1 1.7 2.1 2.8-2 4.9-3 1.9z"/>
			<path id="&lt;Compound Path&gt;" fill-rule="evenodd" class="s1" d="m180.1 951.1c4.7 5-3 12.3-7.8 6.9-4.5-7.1 4.2-11.5 7.8-6.9zm-5.2 1.7c-2 2.7 0.9 4.7 2.7 3.2 1.9-2.1-0.9-4.7-2.7-3.2z"/>
			<path id="&lt;Compound Path&gt;" fill-rule="evenodd" class="s1" d="m157 968.2c4.7 5.1-3 12.4-7.8 6.9-4.5-7 4.2-11.4 7.8-6.9zm-5.2 1.8c-2 2.6 0.9 4.6 2.7 3.2 1.9-2.2-0.9-4.8-2.7-3.2z"/>
			<path id="&lt;Compound Path&gt;" fill-rule="evenodd" class="s1" d="m275.4 985.6c4.7 5.1-2.9 12.4-7.7 7-4.6-7.1 4.1-11.5 7.7-7zm-5.1 1.8c-2 2.6 0.9 4.7 2.6 3.2 1.9-2.1-0.9-4.7-2.6-3.2z"/>
			<path id="&lt;Path&gt;" class="s1" d="m189.7 968.9c1.3 0.9 1.2 2.3-0.5 2.3-5.1-1.1-8.2-4.9-10.3-8.9-0.8-2 1.3-3.9 2.7-1.6 1.6 2.8 3.8 5.6 8.1 8.2z"/>
			<path id="&lt;Path&gt;" class="s1" d="m180.3 986.4c2.7 0 5.6 0.3 8.3 1 0.7 0.4 0.9 0.5 1.2 1.3l-0.2 2.2c0 0.8-0.3 1.3-1.3 0.9-2.2-1.3-5-2.1-8.1-2.8-1.7-0.6-1.2-2.5 0.1-2.6z"/>
			<path id="&lt;Path&gt;" class="s1" d="m167.3 987.6c2-1.5 3.9-2.3 5.9-2.1 2.7 0.3 1.1 2.9 0 2-0.6-0.6-1.3-0.7-2.5-0.4-2.9 0.8-3.5 1.6-5 2.3q-1.6 0.7 0 1.6c19.2 5.5 12.9-17.1-2.2-4.8-1.5 2 0.8 2.9 3.8 1.4z"/>
			<path id="&lt;Path&gt;" class="s1" d="m139.2 949.4c2.5 0 4.6 0.5 6.1 1.9 2 1.8-0.9 2.9-1.3 1.5-0.1-0.8-0.6-1.3-1.7-1.8-2.8-1.1-3.8-0.9-5.5-1.2q-1.7-0.4-0.9 1.3c12.2 15.8 20.8-5.6 1.1-5.1-2.5 0.7-1.1 2.7 2.2 3.4z"/>
			<path id="&lt;Path&gt;" class="s1" d="m288.5 972.9c-17.7-7.7-17.4 15.8-0.7 5.3q1.3-1.4-0.4-1.7c-1.6-0.2-2.4-0.7-5.4-0.7-1.2 0-1.8 0.3-2.3 1-0.8 1.2-3.1-0.9-0.5-1.9 1.8-0.7 3.9-0.5 6.1 0.4 3.3 0.6 5.3-0.9 3.2-2.4z"/>
			<path id="&lt;Path&gt;" class="s1" d="m255.3 975.3c5.4 0.4 10.7 0.1 15.9-1.3 1.9-1 3.9 1.2 1.8 2.4-3.2 1.9-8.6 2.7-17.3 2-3.1-0.5-2.5-3-0.4-3.1z"/>
			<path id="&lt;Path&gt;" class="s1" d="m265.7 985.7c1.4 1.7-0.7 2.8-2.4 2.1-7.2-4.8-1.7-7.9 9-9.8 2.2-0.4 2.8 2.2 1.3 2.6l-7.9 2.5c-1 0.4-1.6 0.8-0.9 1.4z"/>
			<path id="&lt;Path&gt;" class="s1" d="m254.8 991l8.3-1.9c1.7-0.4 3.1 2.4 1.2 3.2l-7.8 1.9c-2.6 0.6-3.3-2.5-1.7-3.2z"/>
			<path id="&lt;Path&gt;" class="s1" d="m161.1 973.5c7.4 1.5 13.8 3.3 17.1 5.9 2.8 2.2-0.3 1.9-0.3 4 0 1.4 0.7 2 2.9 1.4 6.8-6.5-3.2-12.5-19.3-14.4-2.3 0.1-2.5 2.4-0.4 3.1z"/>
			<path id="&lt;Path&gt;" class="s1" d="m150.9 956.4c16.6 7.7 12.5 14.6 7.5 11.5q-0.7-0.5-0.1-1.5c0.7-0.5 0.5-1-0.1-1.5-2-2.3-5.5-4.2-8.4-6.3-1.2-1-0.7-2.8 1.1-2.2z"/>
			<path id="&lt;Path&gt;" class="s1" d="m153 952.4c6.1 3.6 12.4 6.9 19 9.5 3.3 1 1.5-2.2 4-0.8 2.4 1.3 1.9 4.8-2.6 4.5-2.1-0.1-5.1-2-9.4-3.8-3.7-1.9-8.1-4.1-13-7.6-1.2-1.2 0-2.8 2-1.8z"/>
			<path id="&lt;Path&gt;" class="s1" d="m213.5 1006.2c0.4-2.2 3.5-2.3 4.2 0.1 0.4 2.9 0.4 5.8-0.1 8.4-0.7 2.3-3.7 2.3-4.4 0.3-0.8-2.5-0.6-5.5 0.3-8.8z"/>
			<path id="&lt;Path&gt;" class="s1" d="m221.6 1008c-0.2-4.4 4.8-4.1 4.9-0.3l-0.2 6.7c0.2 3.2-4.6 3-4.7 0.7z"/>
			<path id="&lt;Path&gt;" class="s1" d="m196.4 1016.6c2-0.5 4.1 0.5 3.2 3-0.6 0.7-1.7 0.8-2.9 0.5-1.8-0.4-2.1-3.1-0.3-3.5z"/>
			<path id="&lt;Path&gt;" class="s1" d="m241.2 1020.2c2 0.6 1.8 2.8 0 3.7-1.9 0.9-3.7-0.3-3.1-2.1 0.6-1.1 1.4-2 3.1-1.6z"/>
			<path id="&lt;Path&gt;" class="s1" d="m199.6 1014.6c2.7-2.2 6-3.5 10-3.8 1.8-0.2 2.4 3.1 0.2 3.9-2.2 0.2-4.2 0.7-5.8 1.8q-1.1 1.3-2.7 0.7l-1.9-1.5c-0.5-0.3-0.2-0.7 0.2-1.1z"/>
			<path id="&lt;Path&gt;" class="s1" d="m228.6 1012.5c3.4 0.6 6.8 2.2 10.1 5.3 0.5 0.5 0.6 1-0.1 1.4l-2 1.2c-0.9 0.5-1.1 0.1-1.5-0.4-2-1.9-4.1-3.1-6.3-3.8-0.5-0.1-0.8-0.4-0.9-1.2-0.2-1.7-0.1-2.8 0.7-2.5z"/>
			<path id="&lt;Path&gt;" class="s1" d="m222.8 1025.6c2.9 2.1 6.4 2.9 8.7 4.9 0.7 0.6 1.2 1.1 0.4 2l-1.2 1.5c-0.8 0.7-1.7 0.8-2.8-0.1-2.7-1.7-5.1-3.1-7.5-4.3-2.3-1.4 0.1-4.8 2.4-4z"/>
			<path id="&lt;Path&gt;" class="s1" d="m210.4 1016.8c0.9-0.6 1.7-0.8 2.3-0.2l2 1.3c0.6 0.4 0.9 0.9 0.1 1.7-3.7 2.8-8.6 3.5-11.1 7.6-1 1.5-2.8 2.2-4.9 2.5q-1.2 0.1-1.1-1.6c0.5-5.7 7.4-7.9 12.7-11.3z"/>
			<path id="&lt;Path&gt;" class="s1" d="m219.3 1019.7q1.2-1.4 2.8-1.1c3.4-0.1 4.2-0.1 2.3 2.8-4.5 5.3-10.4 5.8-13 10.1-0.5 1.2-1.3 1.2-2.2 0.7l-1.7-1.5c-1-1.2-0.5-2.3 0.6-3.3 3.2-3 7.8-4.5 11.2-7.7z"/>
			<path id="&lt;Path&gt;" class="s1" d="m226.4 1020.2c0.7-0.9 1.4-0.7 2.2-0.2 3.3 2.7 9.2 3.7 13.3 10 0.4 0.7 0.3 1.1-0.5 1.4q-1.5 0.4-3.3 0.1c-0.9-0.2-1.8-0.9-2.6-1.8-1-1.1-2-1.8-3.3-2.5-2-1.2-4-1.8-6-3.1-1.9-1.1-1.1-2.5 0.2-3.9z"/>
			<path id="&lt;Compound Path&gt;" fill-rule="evenodd" class="s1" d="m207.3 1009.5c-2.1-0.7-5.6 1-9.5 3.4-1.9 1.4-3.1 0.6-4.2 1.2-2.4 0.1-5.6 7.5-11.6 7.7-1.7-0.2-2.2-1.2-1.5-2.3l1.9-3.1c0.4-1.2-0.8-1.7-2.6-0.2-3.2 3.2-6.8 4.2-10.8 3.5-2-0.7-2-1.8-1.1-3.1l2.5-2.9q0.6-1.6-1-1l-6 2.4c-2.3 0.8-4.1 0.3-5.5-1.2q-1-1.2 0-1.7c1.2-0.6 2-1.5 2.6-2.4 0.7-0.8 0.2-1.2-1-1.4-6.3 0.5-11.3 0.4-13-1-1.9-1.7-0.8-2.8 1.1-3.9l6.1-1.8c1.1-0.4 1.2-0.9 0.5-1.7-0.9-1.1-0.3-1.7 0.5-2.2 3-1.6 6.1 0.1 9.4 2.8 0.7 0.6 1.4 0.9 0.9-0.6l-0.7-2.4q-0.7-2.1 1.4-2c3.1 0 6 1.9 9.4 6.3 1.4 1.5 2.4 1.1 1.4-0.8l-1.1-2.5q-0.5-2.2 2-2.5c2.9-0.3 4.9 0.3 5.5 2.3l3 5.3c1.1 1.6 2.1 1.2 3-0.2 0.8-2.2 3.1-0.8 6.2 2.3 1.1 1.2 2.6 1.7 4.5 0.9q6-2.1 11-1.1c2.7 1.1 1.3 4.5-3.3 3.9zm-15-0.9c-0.7 0.7-1.6 1.1-2.7 1.2-2.9 0.3-4.5-0.7-5.5-2.4l-2.7-4.5c-0.8-1.3-1.5-0.7-0.8 0.7l1.2 2.7c0.6 1.1 0.2 1.8-1.1 1.8-4.2 0.2-7.5-2.4-10.3-6.5-1-1.5-1.8-0.8-1 0.4l1.4 2.1c0.6 0.9 0.6 1.5-0.6 1.6-3.7-0.2-7.1-1.9-10.1-4.6q-1.7-0.9-1.1 0.3l0.5 1.3c0.4 1-0.2 1.3-1.1 1.3l-5.4 0.1c-1.4 0-1.6 1 0.7 1.1 4.9 0 9.3 0.3 12.6 1.6 0.7 0.2 1.2 0.5 0.6 1.6l-2.1 1.9c-1 0.8-0.9 1.5 0.5 1.1 3.7-2 7.1-3.2 9.8-2.2 1.1 0.1 1.9 1.6 1.1 2.5l-1.1 2.3c-0.3 1-0.3 1.7 1.1 0.7 2.3-2.5 4.7-4.3 7-4.1 3.5 0.4 4.9 1.5 3.5 3.8-1.4 2.3 1.8 2.2 3-1.4 0.1-1 1.2-1.5 2.8-1.8 1.8-0.6 0.8-3.8-0.2-2.6z"/>
			<path id="&lt;Compound Path&gt;" fill-rule="evenodd" class="s1" d="m150.7 997c-5.5-4.9-11.4-5.4-17.6-4.2q-1.6-0.3-1.1-2.5c-0.1-1.6-1.1-1.3-2.1-1.2-7.6 0.7-11.2-1.8-13.3-5.3-0.2-0.9-0.3-1.6 1.2-1.7l7.2-0.3c1.2 0.1 1.2-0.9 0-1.3-7.4-1.8-11.9-4.3-13.3-7.6q-1-2 1.4-1.9l5.4 1c1.9 0 1.2-0.6 0.2-1.3l-5.6-3.5c-1.6-1.5-0.6-2.9 1.6-2.8 4.8 0.6 4.1-0.3 4-5.3q0.2-4.9 4.1 0.8c1.9 2.4 2.3 2.2 2.9-1.1q0.6-1.8 2.6-0.3c2.2 1.4 2.4 6.6 2.2 12.7-0.2 1.1 1.5 2.2 1.8 0l0.7-3.5q0.9-3 3.9-0.6c2.2 2.2 2.8 5.6 2.6 12.7 0 1.7 1.7 1.9 2.3 0 0.6-1.3 1.6-1.4 2.2 0.5 0.8 5.6 3 10.7 8.4 14.7 1.5 1.3 0.2 3.6-1.7 2zm-8.6-8.6c-1.4-3.2-2.1-1.2-4.1-2.4-2.3-1.3-3-5-2.7-10.3 0.2-1.4-0.6-1.9-0.9-0.1l-0.4 2.7q-0.1 2-2 1.1c-2.2-1.3-3.9-3.7-4.9-7.5-0.1-1.3-0.5-1.9-1.2-2.2-1.7-1.2-2.6-3.1-3.4-5-0.3-1.1-1.1-1.2-1 0.1 0 0.8-0.2 1.4-0.7 1.7-1 0.4-1.3 0.8 0.1 1.2q3 0.7 5.3 6.9 0.6 1.3-0.5 1.3l-5.2-0.4c-2.2-0.4-1.3 0.9 0 1.2l5.7 1.2q2.8 0 4.7 3.4c0.8 1.3 0.7 2.1-0.3 2.4-2.8 0.6-4.8 0.9-6.4 1.1q-2.4 0.1 0.3 1.2c3.2 1.4 9.8-1.8 11.5 1 0.4 0.8 0.1 2.4 1.1 2.4l4.4 0.1c1.4 0.1 1-0.3 0.6-1.1z"/>
			<path id="&lt;Path&gt;" class="s1" d="m149 981.4c1.9-1.6 5-1 4.8 1.6-0.6 1.2-1.9 1.6-3.5 1.6-2-0.3-2.4-2.4-1.3-3.2z"/>
			<path id="&lt;Path&gt;" class="s1" d="m134.8 996.2c2.1-0.8 3.5-0.1 3.9 2.7 0 1.8-1.3 2.2-3.2 1.9-2.2-0.9-2.1-3.8-0.7-4.6z"/>
			<path id="&lt;Path&gt;" class="s1" d="m149.6 985.9q1.7 0.1 3.8-0.5c2.7-1 4 1.8 2.5 3.1q-1.4 0.9-1 2.7c2.2 5-0.2 5.4-2.6 1.4-0.9-1.7-2-2.5-3.1-2.9-2-0.8-1.9-3.8 0.4-3.8z"/>
			<path id="&lt;Path&gt;" class="s1" d="m139.2 997.4c-1.5-2.6 0.5-4.6 3-3 0.8 0.9 1.9 1.5 3.6 1.6q2.1 0 3.4 1.1c0.8 0.8 0.7 1.5-0.1 1.5-2.3-0.2-4.3 0.1-5.1 2.1-0.9 1.9-3.6 2.1-4.1 0.1-0.1-1.6-0.3-2.7-0.7-3.4z"/>
			<path id="&lt;Compound Path&gt;" fill-rule="evenodd" class="s1" d="m114.9 962.7c-3.4-1.8-6.2-4.3-8.6-7q-2.1-3.8-5.5-4.5c-4.8-1.1-7.7-2.9-9.2-5q-1.1-1.7 0.9-1.7l2.3 0.2c1.3 0.2 1.2-1-0.4-1.5-6-1.5-10.3-3.6-10.7-7-0.5-1.4-0.5-2.5 2.7-2 1.8 0.3 1.5-0.3 0-1-2.3-0.8-4.1-2.5-5.8-4.3-1-1.8-0.2-3.8 2.4-3 2.2 1.2 2.7-0.2 0.9-2.1-0.8-1.5-0.6-2.5 1.7-2.4 1.1 0.4 2.3 0.3 3.5-0.9 1-0.6 2-0.5 2.9 1.1 0.6 1.8 2.2 3.3 2.9 0.8 0.5-2.3 1.5-3.2 3.2-2.1 1.7 1.1 1.7 3.8 0.3 7.8-0.4 2.2 1.5 1.8 2.2-0.4 0.4-3.5 1.5-5.6 4.2-4.7 3.7 1 3.9 5.6 1.7 12.6-0.6 1.8 0.6 2.7 1.9 1.5 2.4-3 4.4-0.2 2.8 3.9-3.9 7.9-2.6 14.4 5 19.3 1.7 1.6 0.8 3.3-1.3 2.4zm-8.9-18.8c0.6-0.7 0.4-1.3-0.6-0.9-3.4 0.9-4.9-2.1-3.7-6 0.8-2.2 1.6-4.7 2.4-7 0.3-1.2-0.2-1.4-0.8-0.3-2.6 5.7-2.2 10.3-7 3.1-1.5-2-1.1-4.1-0.4-6.1 0.3-1.2-0.4-1.4-0.8-0.5-1.3 2.5-1.9 2.1-4.2-0.5-0.7-0.9-1.9 0.1-1 1.2 2.4 2.3 5.3 5-0.2 3.3-1.1-0.4-1.3 0.5-0.1 0.8 8.2 1.4 12.7 11 3.3 7.5-0.9-0.5-1.6 0.7 0 1 7.1 1 12.2 6.8 6.5 7.5-1.1-0.2-0.8 0.6-0.1 0.7 2.1 0.1 4.1 0.2 5.1 1.4 0.8 0.9 1.4 0.2 0.8-0.5-1.3-1.6-0.5-3.1 0.8-4.7z"/>
			<path id="&lt;Path&gt;" class="s1" d="m113.1 947c1.5 0.7 3 1.2 4.7 1.4 1.8 0.1 2.6 2.7 1 3.4-1.9 0.5-3.1 1-3 4-0.2 3-2.3 2.9-2.6 1.3-0.3-3.1-0.8-5.7-1.9-6.8-1.2-2-0.5-3.9 1.8-3.3z"/>
			<path id="&lt;Path&gt;" class="s1" d="m115.3 942.3c2.4-0.4 4 0.2 3.9 2.9-0.4 1.3-1.6 1.5-3.3 1.3-2.8-0.7-2.7-3.4-0.6-4.2z"/>
			<path id="&lt;Path&gt;" class="s1" d="m96.7 956.5c1.1-1.5 3.5-1.3 4.1 1q0.7 3-2 3.4c-2.6 0-3-3.2-2.1-4.4z"/>
			<path id="&lt;Path&gt;" class="s1" d="m101.6 957.5c0.2-2.6 3-3 4.1-1.1 0.5 1.3 1.4 2.4 2.9 3.1 3.7 2.2 3.9 4.1 0.9 3.6-2.3-1.3-3.6-1.2-4.2-0.3-1.6 2.1-4.9 1.1-4.3-1q0.8-2.8 0.6-4.3z"/>
			<path id="&lt;Compound Path&gt;" fill-rule="evenodd" class="s1" d="m93.1 898c-1.1 1.6-1.8 2.4-3 2.8-0.9 0.2-1.3 0.6-0.6 1.5 0.8 0.8 0.9 1.7 0.1 2.9-1.9 1.5-1.5 5.2 0.7 10.8 1.6 2.1 0.3 3.7-1.1 2.8-1.4-0.7-2.1-2.1-2.6-3.8-1.2-5.9-2.7-7.2-4.3-7.8-2.4-1.2-3.2-2.4-3.2-3.6 0.1-2.2-0.9-2.8-2-3.3-2.9-1-4.6-2.5-5.1-4.6q-1.7-5.5 3.7-2.4c0.9 0.3 1.6 0 0.8-1.8l-1.9-3.4c-1-2.1-0.7-3.7 0.5-4.9q2.2-2.5 3.1-1.1c1.7 2.6 2.8 3.2 2.9 0.8 0.3-5.9 1.9-8.6 4.7-7.2 1.7 1.4 3.4 0.7 5.1-0.9 1.7-1 2.5-0.3 2.9 1 0.7 2.8-0.2 5-2.3 6.9q-2.1 3 2.8 0.7c1.2-0.8 1.9-0.3 2.1 1.3 0.6 3.5-2.6 5.7-7.1 7.5-1.6 0.5-0.9 2.5 0.8 1.5 4.7-3 7 0.8 3 4.3zm-8.7-10.3c0.3-2.3 1.4-3.9 2.9-5.2 0.8-0.8 1.2-1.6-0.5-1.5-2.1 0.1-3.8 0.8-3.5 3.6l-0.5 4.3c-0.4 1.6-1.1 2-2.2 1q-3.2-2.9-1.9-0.3c2.8 4.3 4.5 7.9 1.6 8.6q-1.7 0.1-0.6 1.1c1 1.4 4.3 1.3 3.1 4l0.3 1.6c2.9 2.7 4 0.2 1.7-1.6-1.8-0.6-1.3-1.6 0.1-2.8q3.9-3.7 1.2-2.6c-2.3 0.4-2.8-0.5-3-2.7-0.1-2.9 0.5-3.1 1.8-3.9 3.3-1.6 3.5-2.2 1.1-2.2-1.2 0.3-1.9 0-1.6-1.4z"/>
			<path id="&lt;Path&gt;" class="s1" d="m97.7 901.8c2.5 0.3 3.6 1.4 2.7 3.7-1.2 0.9-2.5 1-4.1 0.1-1.7-1.3-0.8-3.9 1.4-3.8z"/>
			<path id="&lt;Path&gt;" class="s1" d="m74.6 905.8c2.3-0.4 3.4 1 2.7 3.6-1 1.7-2.3 1.8-3.8 1-1.5-1.4-0.7-4.1 1.1-4.6z"/>
			<path id="&lt;Path&gt;" class="s1" d="m78.8 908c1.4-2.2 4-0.6 4.1 1.2l0.6 2 2.5 3.3c1 1.5 0.1 3-1.2 2-1.9-1.8-3.7-3.2-5-1.9-2.3 0.9-3.9-0.4-3.2-2.3 0.8-1.4 1.5-2.7 2.2-4.3z"/>
			<path id="&lt;Path&gt;" class="s1" d="m94.1 905.3q1.9 1.3 4.1 2.4c2 0.6 2.7 3.7-0.5 3.8-1.5-0.1-2.5 1.2-3.2 3.5-0.9 1.8-1.6 1.4-2.2 0-0.8-2.3 0.8-5-0.4-6.6-0.9-1.5 0.6-4 2.2-3.1z"/>
			<path id="&lt;Path&gt;" class="s1" d="m285.2 994.5c-4.7-6.7 9.3-8.3 6-0.1-0.8 0.7-1.2 1.5-0.8 2.5 1.2 3.8-5 3.6-4 0.2 0.4-1-0.2-1.8-1.2-2.6z"/>
			<path id="&lt;Path&gt;" class="s1" d="m322.3 967.1c-7.4-3.5 4.1-11.8 5.1-3-0.3 1-0.3 1.9 0.6 2.6 2.8 2.7-2.7 5.6-3.5 2.2-0.1-1.1-1-1.6-2.2-1.8z"/>
			<path id="&lt;Path&gt;" class="s1" d="m343.3 926.9c-7.7-2 1.2-12.5 4.1-4.3 0.3 0.9 0.2 1.9 1.3 2.3 3.4 1.8-0.9 6.5-2.8 3-0.4-1-1.4-1.2-2.6-1z"/>
			<path id="&lt;Path&gt;" class="s1" d="m297.2 1007.1c8.3 0.3 0.8 12.3-3.6 4.7-0.1-1-0.5-1.8-1.5-2.1-3.7-1.3 0.3-6.1 2.3-3.3 0.6 0.9 1.6 1 2.8 0.7z"/>
			<path id="&lt;Path&gt;" class="s1" d="m337.8 972.5c7-3.3 6.7 10.3-0.8 5.8-0.5-0.9-1.3-1.4-2.3-1.1-3.8 0.7-3.2-4.9 0.4-4 0.9 0.6 1.8 0.1 2.7-0.7z"/>
			<path id="&lt;Path&gt;" class="s1" d="m360.1 927.4c6.3-5.3 8.4 8.8 0.9 5.8-0.8-0.7-2-0.9-3-0.4-4.1 0.9-3.8-4.9-0.4-4.1 1 0.3 1.8-0.3 2.5-1.3z"/>
			<path id="&lt;Path&gt;" class="s1" d="m229.6 1006.9c4.4 1.2 9.3 3 14.6 5.7q3 1.3 6.1-0.3c11.7-4 21.6-7.7 32.5-6.9 2 0.1 2.4 1.5-1.2 1.6-2.1-0.1-4.2 0.3-6.3 1.1-8.3 3-14.7 6.9-19.2 6.3-5.4 0.3-5.7 2.2-3.1 2.5 4.5 0.7 8.8-0.6 13.1-2.3 6-3.3 12-6.1 18.3-6.6 1.7 0.1 2.5-0.3 0.9 1.7-4 3.9-11.1 6.6-19.1 8.9-6.7 1.7-10.5 4-15.1 2.4-3.6-1.4-6.6-3.4-9.5-5.5-4.2-2.4-8.5-4.3-12.7-4.7-2.5-0.5-1.6-4.4 0.7-3.9z"/>
			<path id="&lt;Path&gt;" class="s1" d="m250.2 1022c9.7 3.9 24.4-6 31.1-5.9 2.5-0.1 3 1.2 1.5 1.8l-17.1 5.5c-1.9 0.5-1.7 1.4-0.4 1.4 9.5-1.5 15.5-7.1 21.4-6.2 1.2 0.1 1.6 0.8-0.1 1.6-6.3 2.8-13.6 5.4-22.5 7.4-8.5 0.3-12.3-2-13.9-5.6z"/>
			<path id="&lt;Path&gt;" class="s1" d="m243.5 1010.1c5.7-0.4 9.2-5.2 15.3-8.7 1.8-1.1 3.6-0.3 6.6-1.6 3.8-1.9 7.5-2.7 10.5-0.8 1.2 1 1.5 1.6 0 1.4-3.1-0.4-6 0.4-8.8 2.3l-6.5 1.3c-3.2 0.7-4.4 2.2-2 1.9l3.2-0.5c2.5-0.3 4.2-2.3 7.6-2.4 2.8-0.2 4.5-1 7.1-1.6 1.7-0.5 2.2 2.6 0.3 2.8-3.3 0.7-6.4 0.7-9.9 1.7-6.4 1.9-11.9 3.8-16.6 6-1.8 1.1-6.1 0.2-6.8-1.8z"/>
			<path id="&lt;Path&gt;" class="s1" d="m287.7 1002.2c0.8-2.5 8.9-4.2 15.6-12.5 4-5.2 11.8-9.6 20.4-16 1.8-1.7 1.8-0.9 1.5 0.3-0.8 3.3-4.1 6.4-9.1 9.4-6.4 4.2-11.9 8.2-13.9 11.6q-1.8 2.7 2.3 0c3.6-4.1 7.5-7.3 11.6-9.4 4.8-2.9 7.7-6.1 9.4-9.5 0.9-1.6 1.3-1.2 1.2 1.7q-0.1 5.5-7.3 10.6c-5.7 4.9-11.2 8.8-16.7 10.8-5.7 0.8-9.8 2.3-11.6 5-1.9 2.6-5.6-0.1-3.4-2z"/>
			<path id="&lt;Path&gt;" class="s1" d="m300.9 1000.7c12.2-2.9 19.2-9.2 25.1-16.3 1.3-1.1 3.1-1 2.7 0.7-3.7 6.5-9.4 9.6-14.8 13.1-1.7 1-1.4 2.3 0 1.7 6.8-4 12.2-8.8 16.4-14.4 0.8-1.1 1.3-0.6 1.4 0.4 0.5 2.1-1.3 4.6-4.5 7.4-3.8 3.7-7.7 7-11.5 8.9-4.9 1.1-10 0.4-14.8 0.4-1.3 0.1-1.7-1.4 0-1.9z"/>
			<path id="&lt;Path&gt;" class="s1" d="m294.9 993.5c0.6-1.3 1.1-3.7 1.5-6.8 1-3.5 2.9-5.6 5.2-7.1 4.2-3.2 8.3-6.5 11.8-10.1 0.6-0.7 1.1-0.7 1.1 0.9 0.1 2.9-4.2 4.8-9.5 10.1l-4.4 4.4c-1.1 1.9 0.3 1.9 2 0.3 2.8-3.4 5.7-6.8 8.9-9 1.7-1.3 2.1-0.7 1.6 1.2-0.4 1.8-2.1 3.6-4.7 5.3-2.8 1.9-5.3 4.8-7.7 8.1-1.2 2-2.9 3.5-5 4.4-1 0-1.1-0.7-0.8-1.7z"/>
			<path id="&lt;Path&gt;" class="s1" d="m328.4 972.2c3.3-3.1 5.2-7.9 6.4-13.7 2.8-6 6.9-16.6 12.3-22.4q2.4-2.1 1.5 0.9c-3.2 8.5-8.1 15.8-10.9 22.6q-0.8 2.5 1.2 1c5.5-6.5 7.9-18.5 12.4-26.3 1.9-2.6 2.1-1.2 2.1 0.8-0.5 7.9-4.1 16.2-9.3 24.7-2.4 2.9-5.8 4-7.2 6.7-1.7 2.9-3.2 5.1-6 7.6-2.5 2.1-3.5-0.7-2.5-1.9z"/>
			<path id="&lt;Path&gt;" class="s1" d="m330.6 962.6c-6.6-11.1 3-22.7 7.3-27.3 1.7-1.4 2.6-0.6 2 0.7-1.8 2-2.6 3.3-3.1 6.2-1.4 5-3.2 5.7-4.4 8.1-1.7 3.3-0.8 4.3 0.3 2.7 3.9-5.9 5.8-14.2 8.6-17.2 1.5-1.6 2.6-0.4 2.4 1.2q-1.6 5-7.4 14.4c-1.3 1.8-2.3 4-2.8 7.2-0.7 3.5-1.2 6-2.9 4z"/>
			<path id="&lt;Path&gt;" class="s1" d="m339.6 965.8c4.2-3.4 7.6-7.3 9.8-12.1 1.4-5.7 3.3-9.1 7.4-11 2.7-1.2 2.5-0.5 0.9 1.5-4.5 4.6-5 11.6-9.4 16.4q-1.7 2.2 0.5 1.2c3.2-1.9 5.6-13.7 10.6-18.6 1.7-1.1 2.4-1 1.3 1.4-3.2 6.2-4.7 13.3-9.4 18.9q-1.9 1.5-4 2.2c-1.7 0.6-3.5 0.8-5.3 1.4-2.6 1-3.8 0.8-2.4-1.3z"/>
			<path id="&lt;Path&gt;" class="s1" d="m349.4 919.4c-5-4.5-6.9-11.4-3.6-23.7 0.8-1.9 0.3-1.9 1.3-0.9 3.9 5-2.2 5.8 1 17.9 0.5 1.3 1.6 1.1 1.2-0.1q-1.7-5.9-0.4-9.5 0.5-1.8 0.3-2.7-0.5-1.9 1.3-0.7c1 1.1 1.5 3 0.7 7.5-0.4 1.8-0.5 4 0.1 7 0.8 2.3 0.7 3.9 0.2 5.1-0.5 1.2-1.3 1-2.1 0.1z"/>
			<path id="&lt;Path&gt;" class="s1" d="m349.9 930c0.4-5.8 3-10.4 2.8-15.8 0.1-9.6 1.2-17.1 4.4-20.2 1.1-1 2-1.1 2.2 0.9q0.6 4-2.1 8.4c-1.2 3.2-1.9 6.9-1.7 11.3-0.1 1.4 1.8 2.1 2-0.3q-0.5-6.5 1.7-11.4 2.1-3.9 1.2-7.7c-0.1-1.6 0.4-1.5 1.3-0.6 0.9 0.9 1.7 2 1.6 6.2-0.1 4.5-0.7 9.1-2.5 13.4-2.5 4.8-5.4 7-6.9 11-0.6 1.1-1.1 2.3-0.8 5.1-0.1 2.6-3.7 2.3-3.2-0.3z"/>
			<path id="&lt;Path&gt;" class="s1" d="m356.2 923.8l6.1-8.8c1.4-1.7 2.1-7.3 2.5-14.9q-0.1-2.2 1.2-1.2c1.1 0.8 1.8 1.8 1.1 4l-1.6 7.5-1.1 5c-0.3 1.6 1.1 1.6 1.1 0.2 0-2.5 0.7-4.7 1.8-6.7 1.2-3.4 1-6.7 0.4-9.8q-0.3-2.1 1.3 0 2.8 3.9 1.5 7.3-1 2.2-0.8 4.6c-0.1 3-0.8 5.3-2.2 6.6l-8.3 7.1c-3.6 2.1-3.8 1.1-3-0.9z"/>
			<path id="&lt;Path&gt;" class="s1" d="m73.5 861.4l8.7 1.3v-0.3q0.3-1.6-0.9-2.6-1.2-0.9-3.6-1.5v-0.5l11.2 1.8-0.1 0.5q-1.8-0.2-3 0.1-1.3 0.3-1.8 0.9-0.5 0.6-0.7 1.8l6 1q1.8 0.2 2.2 0.2 0.4-0.1 0.7-0.4 0.3-0.2 0.5-1l0.1-1q0.4-2.4-0.8-4.1-1.2-1.6-3.9-2.7l0.1-0.5 6.6 1.9-2.2 14.7-0.6-0.1 0.1-0.5q0.1-0.8-0.1-1.3-0.2-0.3-0.7-0.6-0.4-0.2-2-0.4l-14-2.2q-1.5-0.3-1.8-0.3-0.6 0.1-0.9 0.4-0.6 0.4-0.7 1.2l-0.1 0.6-0.6-0.1 2.2-14.3 6.3 1v0.5q-2.4 0-3.5 0.5-1.1 0.5-1.8 1.6-0.4 0.7-0.7 2.6z"/>
			<path id="&lt;Path&gt;" class="s1" d="m76.4 835l7 1.6-0.1 0.5q-2.7-0.3-4.7 0.7-1.9 1-2.3 2.7-0.3 1.2 0.4 2.2 0.6 0.9 1.7 1.2 0.7 0.2 1.3 0.1 0.8-0.2 1.7-0.8 0.7-0.5 2.5-2.3 2.5-2.5 4.4-3.1 1.8-0.6 3.9-0.1 2.7 0.7 4.1 2.8 1.5 2.1 0.9 4.7-0.2 0.7-0.5 1.4-0.4 0.7-1.2 1.6-0.5 0.5-0.6 0.9 0 0.3 0.2 0.7 0.2 0.5 0.8 0.9l-0.1 0.4-8-2 0.2-0.4q3.4 0.3 5.6-0.9 2.1-1.1 2.5-2.9 0.4-1.3-0.4-2.4-0.7-1.1-2-1.4-0.7-0.2-1.5 0-0.8 0.1-1.5 0.6-0.8 0.5-2.2 1.9-2 1.9-3.2 2.7-1.3 0.7-2.6 0.9-1.4 0.3-2.8-0.1-2.5-0.6-3.9-2.5-1.5-2-0.9-4.2 0.2-0.8 0.6-1.5 0.4-0.6 1-1.3 0.7-0.7 0.8-1 0.1-0.3-0.1-0.6-0.2-0.2-1.1-0.6z"/>
			<path id="&lt;Path&gt;" class="s1" d="m85.2 815l5.4 2.3-0.1 0.5q-2.1-0.5-3.1-0.4-1 0.1-1.8 0.7-0.5 0.4-0.9 1.5l-0.5 1.2 15.3 6.6q1.6 0.7 2 0.7 0.4 0 0.9-0.2 0.4-0.3 0.7-1l0.2-0.5 0.6 0.2-3.5 8.4-0.5-0.3 0.2-0.5q0.3-0.7 0.1-1.3 0-0.3-0.5-0.7-0.2-0.3-1.8-1l-15.3-6.6-0.5 1.1q-0.6 1.6-0.1 2.7 0.8 1.6 2.9 2.8l-0.2 0.4-5.4-2.3z"/>
			<path id="&lt;Compound Path&gt;" fill-rule="evenodd" class="s1" d="m104.7 812l-3.1 5.2 1.5 1.8q0.7 0.8 1.3 1.2 0.8 0.5 1.4 0.2 0.4-0.2 1.2-1.3l0.5 0.3-2.9 5-0.5-0.3q0.3-0.9 0-1.9-0.4-0.9-2.1-2.9l-11.7-14.4 0.1-0.2 18.4 4q2.6 0.5 3.5 0.4 0.6-0.2 1.1-0.8l0.5 0.3-4.2 7.2-0.5-0.3 0.1-0.3q0.5-0.9 0.4-1.4 0-0.4-0.4-0.6-0.3-0.2-0.6-0.3-0.1 0-1.2-0.3zm-1.2-0.2l-7.7-1.7 5 6.2z"/>
			<path id="&lt;Compound Path&gt;" fill-rule="evenodd" class="s1" d="m115.1 807.1l-0.5-0.3 0.3-0.5q0.5-0.6 0.5-1.1 0-0.5-0.3-1-0.2-0.3-1.6-1.3l-11.4-8.6q-1.3-1.1-1.7-1.2-0.4-0.1-0.9 0-0.5 0.2-0.9 0.8l-0.4 0.4-0.5-0.3 4.6-6.2q1.8-2.5 3.7-3.4 2.4-1.1 5.2-0.4 2.8 0.6 5.5 2.6 1.8 1.4 3 3.1 1.2 1.6 1.6 3.1 0.5 1.5 0.4 3-0.1 1.4-0.8 3-0.3 0.8-1.3 2.1zm-12.5-17.7l13.5 10.3q1.1 0.8 1.4 0.9 0.3 0.1 0.6 0 0.4-0.1 0.8-0.6 1.2-1.7 0.4-3.7-1.1-2.8-5.2-5.9-3.3-2.5-5.9-3.2-2.1-0.5-3.4 0.1-0.9 0.4-2.2 2.1z"/>
			<path id="&lt;Compound Path&gt;" fill-rule="evenodd" class="s1" d="m117.7 771q2.6-3.2 6.7-2.9 4.1 0.2 7.6 3.5 3.1 2.9 4.1 6.4 1.4 4.8-1.7 8.2-3.1 3.5-7.7 2.6-3.6-0.6-6.8-3.6-3.5-3.3-4.2-7.4-0.6-4.2 2-6.8zm0.9 0.5q-1.6 1.8-0.2 4.8 1.2 2.4 4.7 5.6 4.1 3.8 7 4.5 2.1 0.5 3.4-1 0.9-1 0.9-2.2-0.1-1.5-1.3-3.5-1.2-2-3.9-4.5-3.2-2.9-5.2-3.9-2-1-3.3-0.8-1.3 0.1-2.1 1z"/>
			<path id="&lt;Path&gt;" class="s1" d="m138 754.9l4.4 5.8-0.4 0.3q-1.9-2-4-2.4-2.2-0.5-3.5 0.5-1 0.8-1.1 1.9 0 1.2 0.6 2.1 0.5 0.6 1 0.9 0.8 0.4 1.8 0.5 0.8 0.1 3.3-0.1 3.5-0.3 5.4 0.4 1.8 0.7 3.1 2.4 1.6 2.2 1.4 4.8-0.1 2.6-2.1 4.2-0.7 0.5-1.4 0.8-0.7 0.2-1.9 0.4-0.7 0.1-1 0.4-0.2 0.2-0.3 0.7-0.1 0.4 0.1 1.1l-0.4 0.3-4.9-6.7 0.4-0.2q2.5 2.4 4.8 2.9 2.4 0.6 3.8-0.6 1.1-0.8 1.2-2.1 0.1-1.3-0.7-2.4-0.4-0.6-1.1-1-0.7-0.4-1.6-0.5-0.9-0.1-2.9 0-2.7 0.3-4.1 0.1-1.4-0.2-2.6-0.9-1.2-0.7-2.1-2-1.6-2.1-1.5-4.5 0.1-2.4 1.9-3.7 0.7-0.6 1.5-0.8 0.5-0.2 1.5-0.3 1-0.1 1.3-0.3 0.3-0.2 0.2-0.5 0-0.4-0.4-1.3z"/>
			<path id="&lt;Path&gt;" class="s1" d="m155.3 746.8l8.1-3.4 0.2 0.6-0.4 0.1q-0.9 0.4-1.2 0.8-0.2 0.4-0.2 0.9 0.1 0.5 0.8 2.2l4 10q1.1 2.7 1.8 3.5 0.6 0.8 1.6 1 1 0.3 2.1-0.1 1.3-0.6 1.9-1.7 0.6-1.1 0.5-2.6-0.1-1.5-1.4-4.8l-3.4-8.3q-0.5-1.4-1-1.8-0.5-0.5-0.9-0.6-0.6-0.1-1.6 0.3l-0.2-0.6 5.4-2.3 0.2 0.6-0.3 0.1q-0.7 0.3-1 0.8-0.3 0.6-0.2 1.3 0.1 0.6 0.6 1.8l3.1 7.8q1.5 3.6 1.7 5.3 0.3 1.7-0.5 3.7-0.9 1.9-3.4 2.9-2 0.9-3.4 0.6-1.9-0.3-3.1-1.5-1.3-1.3-2.3-3.8l-4-10q-0.7-1.7-1.1-2.1-0.3-0.4-0.7-0.5-0.5-0.1-1.5 0.4z"/>
			<path id="&lt;Path&gt;" class="s1" d="m181.6 737.8l11.1 11.5-2-9.3q-0.4-1.9-1-2.5-0.8-0.8-2.2-0.4l-0.1-0.6 5.5-1.2 0.1 0.5q-1 0.5-1.3 0.8-0.3 0.4-0.4 1 0 0.7 0.3 2.2l3.9 18-0.4 0.1-15.1-15.4 3 13.6q0.3 1.9 1.1 2.4 0.8 0.5 1.7 0.3l0.4-0.1 0.1 0.6-5.9 1.3-0.1-0.5q1.4-0.4 1.7-1.2 0.4-0.8 0.1-2.6l-3.3-15.2-0.5-0.5q-0.7-0.7-1.2-0.9-0.4-0.1-1.2 0l-0.1-0.6z"/>
			<path id="&lt;Path&gt;" class="s1" d="m206.6 754.8l0.1 0.6-8.8 1.3-0.1-0.6 0.6-0.1q0.7-0.1 1.1-0.5 0.3-0.3 0.4-0.9 0.1-0.3-0.2-2l-1.9-14.4q-0.3-1.6-0.5-2-0.2-0.4-0.6-0.7-0.5-0.2-1.2-0.1h-0.5l-0.1-0.6 8.8-1.2v0.6l-0.5 0.1q-0.7 0.1-1.1 0.5-0.3 0.2-0.4 0.8-0.1 0.4 0.1 2.1l2 14.3q0.2 1.7 0.4 2.1 0.2 0.4 0.7 0.6 0.4 0.3 1.1 0.2z"/>
			<path id="&lt;Compound Path&gt;" fill-rule="evenodd" class="s1" d="m207.9 755.1l-0.1-0.7h0.6q0.7 0 1.1-0.3 0.4-0.3 0.6-0.8 0.1-0.3 0.1-2l-0.1-14.5q-0.1-1.7-0.2-2.2-0.1-0.4-0.6-0.7-0.4-0.3-1.1-0.3h-0.6v-0.6l7.6-0.1q3.1 0 4.9 1.1 2.3 1.3 3.5 3.9 1.2 2.7 1.2 6 0 2.4-0.5 4.3-0.6 2-1.5 3.3-0.9 1.3-2.1 2-1.1 0.8-2.9 1.3-0.7 0.2-2.4 0.2zm6.3-20.9l0.2 17.2q0 1.4 0.1 1.7 0.1 0.3 0.3 0.5 0.4 0.2 1 0.2 2.1 0 3.2-1.9 1.4-2.5 1.4-7.8-0.1-4.2-1.1-6.7-0.8-2-2.1-2.7-0.9-0.5-3-0.5z"/>
			<path id="&lt;Compound Path&gt;" fill-rule="evenodd" class="s1" d="m238 734.9q4.1 0.1 6.4 3.6 2.3 3.4 1.9 8.3-0.2 4.2-2.4 7.3-2.7 4-7.3 3.7-4.6-0.4-6.8-4.6-1.7-3.3-1.4-7.7 0.3-4.9 3.1-7.9 2.8-3.1 6.5-2.7zm0.1 1.1q-2.3-0.2-3.7 2.8-1.2 2.5-1.5 7.2-0.4 5.6 0.9 8.4 0.9 2 2.9 2.1 1.2 0.1 2.1-0.6 1.2-1 2-3.2 0.8-2.2 1-5.9 0.3-4.4-0.1-6.6-0.5-2.2-1.4-3.1-0.9-1-2.2-1.1z"/>
			<path id="&lt;Path&gt;" class="s1" d="m261.7 739.6l-1.2 7.3-0.5-0.1q0.1-2.8-1-4.8-1-1.9-2.7-2.2-1.2-0.3-2.1 0.5-0.9 0.7-1.1 1.8-0.2 0.8 0 1.4 0.2 0.8 0.9 1.7 0.4 0.6 2.3 2.4 2.5 2.4 3.2 4.3 0.7 1.8 0.3 4-0.5 2.7-2.5 4.3-2 1.6-4.5 1.2-0.8-0.2-1.4-0.5-0.7-0.4-1.6-1.2-0.6-0.4-0.9-0.5-0.4 0-0.8 0.2-0.4 0.3-0.7 0.9l-0.5-0.1 1.6-8.2 0.4 0.1q-0.1 3.5 1.1 5.7 1.2 2.1 3 2.4 1.3 0.3 2.3-0.5 1-0.8 1.3-2.1 0.1-0.8 0-1.6-0.2-0.7-0.7-1.5-0.6-0.8-2-2.1-2-2-2.8-3.2-0.8-1.2-1.1-2.5-0.3-1.4 0-2.9 0.5-2.6 2.3-4.2 1.8-1.5 4-1 0.9 0.1 1.6 0.5 0.5 0.3 1.2 1 0.8 0.7 1.1 0.8 0.3 0 0.5-0.2 0.3-0.2 0.6-1.2z"/>
			<path id="&lt;Path&gt;" class="s1" d="m282.1 765.1l10.9-10.5 6 3.3-0.3 0.6-0.4-0.3q-0.7-0.4-1.2-0.3-0.4 0.1-0.9 0.4-0.3 0.3-1 1.8l-6.8 12.7q-0.8 1.5-0.9 1.9-0.1 0.5 0.1 1 0.3 0.5 0.9 0.8l0.5 0.3-0.3 0.5-7.8-4.3 0.3-0.6 0.5 0.3q0.6 0.4 1.2 0.3 0.4 0 0.8-0.4 0.3-0.3 1.1-1.8l7.6-14.3-15.1 14.5-0.3-0.2 3.6-20.7-7.3 13.6q-0.7 1.4-0.9 1.8-0.2 0.8 0 1.5 0.3 0.7 1.3 1.3l-0.3 0.5-5.1-2.8 0.3-0.5h0.1q0.5 0.3 1.1 0.3 0.5 0.1 0.9-0.2 0.5-0.2 1-0.8 0.1-0.2 0.7-1.5l6.6-12.2q0.8-1.5 0.8-1.9 0.1-0.5-0.1-0.9-0.2-0.5-0.9-0.9l-0.4-0.2 0.3-0.6 6 3.4z"/>
			<path id="&lt;Path&gt;" class="s1" d="m306.9 765.6l-5.2 7.3 0.3 0.2q1.3 1 2.6 0.3 1.4-0.6 3-2.6l0.4 0.3-6.6 9.4-0.4-0.3q1-1.6 1.3-2.9 0.3-1.3 0-2-0.3-0.7-1.3-1.4l-3.5 5q-1.1 1.5-1.2 1.9-0.2 0.4-0.1 0.8 0.2 0.4 0.8 0.8l0.8 0.6q1.9 1.4 3.9 1.2 2-0.4 4.1-2.4l0.4 0.3-4.6 5.2-11.9-8.7 0.3-0.5 0.5 0.3q0.6 0.5 1.2 0.5 0.3 0 0.8-0.4 0.3-0.2 1.3-1.5l8.3-11.8q0.9-1.2 1-1.5 0.3-0.5 0.2-1-0.2-0.7-0.8-1.1l-0.5-0.4 0.4-0.5 11.5 8.5-3.8 5.3-0.4-0.3q1.1-2.1 1.2-3.4 0-1.2-0.6-2.3-0.5-0.7-2-1.8z"/>
			<path id="&lt;Path&gt;" class="s1" d="m319.1 786.2l-2.5 9.9q-0.6 2.5-0.6 3.2 0.1 0.7 0.5 1.2l-0.4 0.4-6.1-5.6 0.4-0.5q0.8 0.6 1.2 0.6 0.4 0 0.7-0.3 0.2-0.2 0.3-0.5 0.2-0.4 0.5-1.9l1.3-5.2-4.6 1.2q-2.1 0.6-2.5 1.1-0.3 0.4-0.4 0.9 0 0.5 0.3 1 0.1 0.3 0.7 0.8l-0.4 0.5-4.8-4.5 0.4-0.5q1 0.7 1.8 0.7 1.1 0 3.8-0.7l6-1.7 2.3-9q0.5-2.3 0.6-2.5 0.1-0.7 0-1-0.1-0.4-0.5-0.9l0.4-0.5 6.3 5.8-0.4 0.5-0.4-0.3q-0.5-0.5-0.9-0.5-0.4 0-0.7 0.4-0.3 0.2-0.4 0.5l-0.4 1.8-1.2 4.5 3.2-0.8q2.4-0.7 3-1.4 0.3-0.3 0.4-0.7 0.1-0.4 0-0.8-0.2-0.4-0.7-0.9l0.4-0.5 4.6 4.3-0.4 0.4q-0.6-0.4-1-0.6-0.5-0.1-1.3-0.1-0.5 0.1-2.8 0.7z"/>
			<path id="&lt;Path&gt;" class="s1" d="m322.6 807.5l-0.4 0.4-6-6.7 0.5-0.4 0.3 0.5q0.5 0.5 1.1 0.6 0.4 0.1 0.9-0.1 0.4-0.2 1.6-1.3l10.5-9.7q1.3-1.1 1.5-1.5 0.2-0.4 0.1-0.9 0-0.6-0.5-1.1l-0.4-0.4 0.5-0.4 5.9 6.7-0.4 0.4-0.4-0.5q-0.5-0.5-1-0.6-0.4-0.1-1 0.1-0.3 0.2-1.5 1.3l-10.6 9.7q-1.2 1.1-1.4 1.5-0.2 0.4-0.2 0.9 0.1 0.6 0.5 1.1z"/>
			<path id="&lt;Path&gt;" class="s1" d="m349.5 808.5l-5.9 4.7-0.3-0.4q2-2.3 2.3-4.5 0.3-2.1-0.8-3.7-1-1.3-2.7-1.6-1.7-0.4-3.6 0.3-2.4 0.9-4.7 2.7-2.3 1.8-3.9 3.7-1.5 2-1.7 3.7-0.3 1.8 0.9 3.4 1 1.3 2.5 1.8 1.5 0.5 4.2 0.3l-1.5 1.2q-2.4 0-4-0.7-1.6-0.7-2.9-2.4-1.6-2.2-1.8-4.7-0.2-2.6 1.2-5.1 1.3-2.6 3.7-4.4 2.4-1.9 5.4-2.6 3-0.7 5.5 0.1 2.5 0.8 4 2.7 1.1 1.5 1.5 3.7 0.2 1.3 0.4 1.5 0.3 0.4 0.8 0.4 0.5 0 1.1-0.5z"/>
			<path id="&lt;Compound Path&gt;" fill-rule="evenodd" class="s1" d="m341.5 829.4l-2.5-5.5-2.2 0.2q-1.1 0.2-1.8 0.4-0.8 0.4-0.9 1.1-0.1 0.5 0.3 1.8l-0.5 0.2-2.4-5.2 0.5-0.3q0.6 0.8 1.5 1 1 0.2 3.6-0.1l18.2-1.8 0.1 0.3-13.5 13.2q-1.9 1.9-2.3 2.7-0.2 0.6 0 1.4l-0.5 0.2-3.5-7.5 0.6-0.3 0.1 0.3q0.4 0.9 0.9 1.1 0.4 0.2 0.8 0 0.2-0.1 0.5-0.3 0.1-0.1 0.9-0.9zm0.9-0.9l5.7-5.5-7.9 0.8z"/>
			<path id="&lt;Path&gt;" class="s1" d="m361.6 838.8l-10.4 12.2 8.9-2.8q1.9-0.6 2.4-1.2 0.7-0.8 0.3-2.2l0.5-0.2 1.7 5.5-0.6 0.1q-0.5-1-0.8-1.2-0.4-0.3-1.1-0.3-0.6 0-2.1 0.4l-17.2 5.4-0.1-0.4 13.8-16.6-13.1 4.1q-1.8 0.6-2.2 1.4-0.5 0.9-0.2 1.7l0.1 0.4-0.6 0.2-1.7-5.9 0.5-0.1q0.5 1.3 1.3 1.6 0.9 0.4 2.5-0.2l14.6-4.5 0.4-0.5q0.7-0.8 0.8-1.3 0.2-0.5 0-1.2l0.5-0.2z"/>
			<path id="&lt;Compound Path&gt;" fill-rule="evenodd" class="s1" d="m368.5 861.8q0.7 4.1-2.1 7.1-2.8 3-7.5 3.7-4.1 0.6-7.5-0.8-4.4-2-5.1-6.6-0.6-4.6 2.9-7.7 2.8-2.4 7.1-3.1 4.8-0.7 8.3 1.5 3.5 2.1 3.9 5.9zm-1 0.3q-0.3-2.3-3.5-3.1-2.6-0.7-7.2 0-5.5 0.8-7.9 2.7-1.7 1.4-1.4 3.3 0.2 1.3 1.1 2.1 1.2 0.9 3.5 1.2 2.3 0.3 5.8-0.2 4.3-0.6 6.3-1.6 2-0.9 2.7-2 0.8-1.1 0.6-2.4z"/>
			<path id="&lt;Path&gt;" class="s1" d="m371.9 887.8h-7.3l0.1-0.6q2.7-0.3 4.4-1.7 1.6-1.4 1.7-3.1 0-1.3-0.9-2-0.8-0.8-1.9-0.8-0.8-0.1-1.3 0.2-0.8 0.4-1.5 1.1-0.6 0.6-2 2.8-1.9 3-3.6 4-1.6 1-3.8 1-2.7-0.1-4.6-1.8-1.9-1.8-1.9-4.3 0.1-0.9 0.3-1.6 0.2-0.7 0.8-1.8 0.3-0.6 0.3-1 0-0.3-0.3-0.7-0.3-0.4-0.9-0.6v-0.5l8.1 0.2v0.4q-3.4 0.5-5.3 2.1-1.8 1.6-1.8 3.4-0.1 1.4 0.9 2.3 0.9 0.9 2.2 0.9 0.8 0 1.5-0.3 0.7-0.3 1.4-1 0.7-0.6 1.7-2.3 1.5-2.3 2.6-3.3 1-1 2.3-1.5 1.2-0.6 2.8-0.5 2.5 0 4.3 1.6 1.8 1.5 1.8 3.8-0.1 0.9-0.3 1.7-0.2 0.6-0.8 1.4-0.5 0.9-0.5 1.2 0 0.3 0.2 0.5 0.3 0.2 1.3 0.4z"/>
			<path id="&lt;Path&gt;" class="s2" d="m468.7 876.4c0 130.2-103.8 236.8-233.9 243v-56.4c98.7-6.2 177-87.5 177-186.6 0-99.1-78.3-180.4-177-186.5v-56.4c130.1 6.2 233.9 112.8 233.9 242.9z"/>
			<path id="&lt;Path&gt;" class="s3" d="m212.9 633.3v56.4c-100.6 4-181.1 86.2-181.1 186.7 0 100.5 80.5 182.7 181.1 186.8v56.3c-132-4.1-238.1-111.6-238.1-243.1 0-131.5 106.1-239 238.1-243.1z"/>
			<path id="&lt;Path&gt;" class="s4" d="m530.9 711.8c-14.2 0-25.8 11.4-25.8 26.3 0 15 11.6 26.4 25.8 26.4 9 0 15.2-3.9 18.6-7.2v8.1c-3.8 3.3-10.2 6.6-19.5 6.6-18.5 0-32.8-15-32.8-33.9 0-18.8 14.3-33.8 32.8-33.8 9.3 0 15.7 3.3 19.5 6.5v8.1c-3.5-3.2-9.6-7.1-18.6-7.1z"/>
			<path id="&lt;Compound Path&gt;" fill-rule="evenodd" class="s4" d="m656.2 754.8h-28.3l-5.8 16.3h-8.3l23.8-65.9h9l23.7 65.9h-8.2zm-2.8-7.5l-11.4-31.8-11.4 31.8zm-8.3-52h-6.3l7.6-13.7h8.5z"/>
			<path id="&lt;Path&gt;" class="s4" d="m804.5 705.2v65.9h-7.9v-51.4l-23.6 38h-3.6l-23.6-38v51.4h-7.9v-65.9h7.9l25.4 40.8 25.4-40.8z"/>
			<path id="&lt;Compound Path&gt;" fill-rule="evenodd" class="s4" d="m914.8 754.8h-28.3l-5.8 16.3h-8.3l23.8-65.9h9l23.7 65.9h-8.2zm-2.8-7.5l-11.4-31.8-11.4 31.8z"/>
			<path id="&lt;Compound Path&gt;" fill-rule="evenodd" class="s4" d="m1017.7 749h-14.5v22.1h-7.9v-65.9h23.5c11.2 0 21.5 8.2 21.5 21.9 0 10.7-6.3 18-14.4 20.8l14.9 23.2h-9.1zm-14.5-7.5h15.6c7.2 0 13.6-5.4 13.6-14.4 0-9-6.4-14.4-13.6-14.4h-15.6z"/>
			<path id="&lt;Compound Path&gt;" fill-rule="evenodd" class="s4" d="m1148 754.8h-28.3l-5.9 16.3h-8.2l23.7-65.9h9l23.8 65.9h-8.3zm-2.8-7.5l-11.4-31.8-11.4 31.8z"/>
			<path id="&lt;Compound Path&gt;" fill-rule="evenodd" class="s4" d="m1368.7 738.1c0 18.5-12.6 33-31.3 33h-21.2v-65.9h21.2c18.7 0 31.3 14.5 31.3 32.9zm-8 0c0-15.4-9.8-25.4-23.3-25.4h-13.4v50.9h13.4c13.5 0 23.3-10.1 23.3-25.5z"/>
			<path id="&lt;Path&gt;" class="s4" d="m1443.7 712.7v20.5h21.1v7.5h-21.1v22.9h27.4v7.5h-35.3v-65.9h35.3v7.5z"/>
			<path id="&lt;Path&gt;" class="s4" d="m1472.3 867.1c0 21.8-19.2 30.7-35.3 30.7-12.7 0-25.7-5-36.2-15.8l11.9-14.5c7.4 8.4 16.9 12.4 24.8 12.4 9.5 0 14.1-4.3 14.1-10.4 0-7.3-5.2-10-17.2-14.2-15.1-5.1-30.1-12-30.1-30.9 0-15.9 14.1-28.2 31.9-28.4 12.3 0 23.6 4.5 33.6 12.6l-11.5 14.8c-8.2-6.7-15.5-9.7-21.7-9.7-6.8 0-11.9 3.6-12 9.9 0 6.1 5.3 8.7 16.8 13.1 17.2 6.7 30.9 11.2 30.9 30.4z"/>
			<path id="&lt;Compound Path&gt;" fill-rule="evenodd" class="s4" d="m585.8 846.9c0 28.7-21 51.2-50.1 51.2h-38v-102.4h38c29.1 0 50.1 22.5 50.1 51.2zm-24.5 0c0-19.9-12.1-28.1-25.6-28.1h-13.5v56.2h13.5c13.5 0 25.6-8.2 25.6-28.1z"/>
			<path id="&lt;Path&gt;" class="s4" d="m622.6 795.7h24.5v102.4h-24.5z"/>
			<path id="&lt;Compound Path&gt;" fill-rule="evenodd" class="s4" d="m763.7 832.2c0 22.8-18.8 36.5-38.7 36.5h-16.6v29.4h-24.5v-102.4h41.1c19.9 0 38.7 13.7 38.7 36.5zm-24.6 0c0-8.4-6-13.4-14.1-13.4h-16.6v26.8h16.6c8.1 0 14.1-5 14.1-13.4z"/>
			<path id="&lt;Path&gt;" class="s4" d="m842 899.5c-27.4 0-43-14.4-43-47.5v-56.3h24.5v56.3c0 18.6 5.6 24.5 18.5 24.5 12.8 0 18.4-5.9 18.4-24.5v-56.3h24.6v56.3c0 33.1-15.6 47.5-43 47.5z"/>
			<path id="&lt;Path&gt;" class="s4" d="m993.8 818.8h-23.1v79.3h-24.5v-79.3h-23v-23.1h70.6z"/>
			<path id="&lt;Compound Path&gt;" fill-rule="evenodd" class="s4" d="m1079.9 878.9h-37.2l-6.9 19.2h-25.4l36.9-102.4h28l36.9 102.4h-25.4zm-8.3-23.1l-10.3-28.5-10.2 28.5z"/>
			<path id="&lt;Compound Path&gt;" fill-rule="evenodd" class="s4" d="m1232.8 846.9c0 28.7-21.1 51.2-50.2 51.2h-37.9v-102.4h37.9c29.1 0 50.2 22.5 50.2 51.2zm-24.5 0c0-19.9-12.1-28.1-25.7-28.1h-13.4v56.2h13.4c13.6 0 25.7-8.2 25.7-28.1z"/>
			<path id="&lt;Compound Path&gt;" fill-rule="evenodd" class="s4" d="m1263.8 846.9c0-29.3 23.4-52.6 52.6-52.6 29.3 0 52.7 23.3 52.7 52.6 0 29.3-23.4 52.6-52.7 52.6-29.2 0-52.6-23.3-52.6-52.6zm80.8 0c0-16.1-11.3-29.6-28.2-29.6-16.8 0-28.1 13.5-28.1 29.6 0 16.2 11.3 29.6 28.1 29.6 16.9 0 28.2-13.4 28.2-29.6z"/>
			<path id="&lt;Path&gt;" class="s3" d="m822.4 973h-324.8v-15.6h324.8z"/>
			<path id="&lt;Path&gt;" class="s0" d="m1146.9 973h-324.8v-15.6h324.8z"/>
			<path id="&lt;Path&gt;" class="s2" d="m1471.1 973h-324.9v-15.6h324.9z"/>
			<path id="&lt;Path&gt;" class="s4" d="m540.6 1054.1v15h-43v-66.4h15.9v51.4z"/>
			<path id="&lt;Path&gt;" class="s4" d="m597.1 1035.9l25 33.2h-19.2l-15.5-20.5-15.4 20.5h-19.2l25-33.2-25-33.2h19.2l15.4 20.5 15.5-20.5h19.2z"/>
			<path id="&lt;Path&gt;" class="s4" d="m696.5 1002.7l-21.3 66.4h-18.7l-21.3-66.4h16.5l14.1 45.5 14.2-45.5z"/>
			<path id="&lt;Path&gt;" class="s4" d="m795 1061.7v7.6h-35.1v-66.4h8v58.8z"/>
			<path id="&lt;Path&gt;" class="s4" d="m828.1 1010.5v20.6h21.3v7.6h-21.3v23h27.6v7.6h-35.5v-66.4h35.5v7.6z"/>
			<path id="&lt;Path&gt;" class="s4" d="m944.3 1033.8c0 21.8-13.4 36.4-33.2 36.4-19 0-32.7-15.5-32.7-34.1 0-18.6 13.7-34.1 33.5-34.1 11.7 0 20.3 5.6 26.3 13.8l-6.2 4.7c-4.2-6-10.7-10.9-20.1-10.9-14.8 0-25.5 11.8-25.5 26.5 0 14.7 10.3 26.5 24.7 26.5 13.4 0 22.7-8.8 24.7-21.3h-26.5v-7.5z"/>
			<path id="&lt;Path&gt;" class="s4" d="m969.4 1002.9h8v66.4h-8z"/>
			<path id="&lt;Path&gt;" class="s4" d="m1012 1050.8c0.6 8 6.8 11.8 13.3 11.8 7.7 0 12.3-4 12.3-9.5 0-7-6.3-10.4-14.3-14.4-11.7-6.2-17.9-10.5-17.9-20.4 0-9.7 8.4-16.3 18.9-16.3 10.9 0 18.4 8.1 18.9 18.1h-8c-0.6-6.1-4.9-10.5-10.9-10.5-6 0-10.9 3.6-10.9 9 0 6.9 5.3 9.3 12.5 12.8 11.7 6 19.7 11.5 19.7 22 0 10.5-8.8 16.8-20.3 16.8-12.2 0-20.8-8.4-21.3-19.4z"/>
			<path id="&lt;Path&gt;" class="s4" d="m1107.8 1061.7v7.6h-35.1v-66.4h8v58.8z"/>
			<path id="&lt;Compound Path&gt;" fill-rule="evenodd" class="s4" d="m1174.4 1052.9h-28.5l-5.9 16.4h-8.3l24-66.4h9l23.9 66.4h-8.3zm-2.8-7.6l-11.5-32-11.5 32z"/>
			<path id="&lt;Path&gt;" class="s4" d="m1244.4 1010.5h-16.2v58.8h-8.1v-58.8h-16.2v-7.6h40.5z"/>
			<path id="&lt;Path&gt;" class="s4" d="m1294.1 1070.2c-15.7 0-25.7-8.8-25.7-28.2v-39.1h7.9v39.1c0 14.9 7.1 20.6 17.8 20.6 10.6 0 17.7-5.7 17.7-20.6v-39.1h8v39.1c0 19.4-10.1 28.2-25.7 28.2z"/>
			<path id="&lt;Compound Path&gt;" fill-rule="evenodd" class="s4" d="m1368.9 1047h-14.6v22.3h-7.9v-66.4h23.6c11.3 0 21.7 8.3 21.7 22.1 0 10.7-6.4 18.1-14.5 20.9l15 23.4h-9.2zm-14.6-7.6h15.7c7.3 0 13.8-5.4 13.8-14.5 0-9-6.5-14.5-13.8-14.5h-15.7z"/>
			<path id="&lt;Compound Path&gt;" fill-rule="evenodd" class="s4" d="m1457.1 1052.9h-28.5l-5.9 16.4h-8.3l23.9-66.4h9.1l23.9 66.4h-8.3zm-2.8-7.6l-11.5-32-11.5 32z"/>
		</g>
		<g id="&lt;Group&gt;">
			<path id="&lt;Path&gt;" class="s5" d="m541.2 332.8c0 8.1-6.6 14.7-14.7 14.7h-109.2c-8.1 0-14.7-6.6-14.7-14.7v-58.2c0-8.1 6.6-14.7 14.7-14.7h63.8l19.1-20.9h11.6 14.1c8.1 0 14.7 6.6 14.7 14.7z"/>
			<path id="&lt;Path&gt;" class="s6" d="m426.4 332.8c0 8.1-6.6 14.7-14.7 14.7h-109.2c-8.2 0-14.7-6.6-14.7-14.7v-58.2c0-8.1 6.5-14.7 14.7-14.7h63.7l19.2-20.9h11.5 14.2c8.1 0 14.7 6.6 14.7 14.7z"/>
			<path id="&lt;Path&gt;" class="s6" d="m306 332.8c0 8.1-6.6 14.7-14.7 14.7h-109.3c-8.1 0-14.6-6.6-14.6-14.7v-58.2c0-8.1 6.5-14.7 14.6-14.7h63.8l19.2-20.9h11.5 14.2c8.1 0 14.7 6.6 14.7 14.7z"/>
			<g id="&lt;Group&gt;">
				<path id="&lt;Compound Path&gt;" fill-rule="evenodd" class="s4" d="m341.1 130.1h34.4c11.1 0 18.8 3 23.7 8 4.3 4.1 6.5 9.7 6.5 16.9v0.2c0 11.1-6 18.5-15 22.4l17.4 25.3h-23.3l-14.7-22h-8.8v22h-20.2zm33.5 35c6.8 0 10.8-3.3 10.8-8.6v-0.2c0-5.8-4.2-8.7-10.9-8.7h-13.2v17.5z"/>
				<path id="&lt;Compound Path&gt;" class="s4" d="m415.9 130.1h58.5v17.2h-38.6v11h35v15.9h-35v11.6h39.1v17.1h-59z"/>
				<path id="&lt;Compound Path&gt;" fill-rule="evenodd" class="s4" d="m485.2 130.1h31.2c18.4 0 30.3 9.5 30.3 25.6v0.2c0 17.2-13.2 26.3-31.3 26.3h-10v20.7h-20.2zm29.8 36.2c7.1 0 11.5-3.7 11.5-9.4v-0.2c0-6.3-4.4-9.6-11.6-9.6h-9.5v19.2z"/>
				<path id="&lt;Compound Path&gt;" fill-rule="evenodd" class="s4" d="m552.7 166.8v-0.2c0-21 16.9-37.9 39.3-37.9 22.5 0 39.1 16.7 39.1 37.6v0.3c0 20.9-16.8 37.8-39.3 37.8-22.4 0-39.1-16.7-39.1-37.6zm57.8 0v-0.2c0-10.6-7.5-19.7-18.7-19.7-11 0-18.4 8.9-18.4 19.4v0.3c0 10.5 7.6 19.6 18.6 19.6 11.2 0 18.5-8.9 18.5-19.4z"/>
				<path id="&lt;Compound Path&gt;" class="s4" d="m635.6 192.1l11.2-13.4c7.2 5.7 15.2 8.8 23.7 8.8 5.4 0 8.3-1.9 8.3-5v-0.2c0-3.1-2.4-4.7-12.3-7-15.5-3.6-27.5-7.9-27.5-22.9v-0.2c0-13.5 10.8-23.3 28.2-23.3 12.4 0 22.1 3.3 30 9.7l-10.1 14.2c-6.7-4.7-13.9-7.2-20.4-7.2-4.9 0-7.3 2.1-7.3 4.7v0.2c0 3.4 2.5 4.8 12.6 7.1 16.8 3.6 27.2 9.1 27.2 22.7v0.2c0 14.9-11.8 23.7-29.5 23.7-12.9 0-25.1-4.1-34.1-12.1z"/>
				<path id="&lt;Compound Path&gt;" class="s4" d="m709.3 130.1h20.3v72.8h-20.3z"/>
				<path id="&lt;Compound Path&gt;" class="s4" d="m760.7 147.8h-21.8v-17.7h63.8v17.7h-21.8v55.1h-20.2z"/>
				<path id="&lt;Compound Path&gt;" fill-rule="evenodd" class="s4" d="m806 166.8v-0.2c0-21 16.8-37.9 39.3-37.9 22.4 0 39.1 16.7 39.1 37.6v0.3c0 20.9-16.9 37.8-39.3 37.8-22.5 0-39.1-16.7-39.1-37.6zm57.8 0v-0.2c0-10.6-7.6-19.7-18.7-19.7-11.1 0-18.4 8.9-18.4 19.4v0.3c0 10.5 7.5 19.6 18.6 19.6 11.1 0 18.5-8.9 18.5-19.4z"/>
				<path id="&lt;Compound Path&gt;" fill-rule="evenodd" class="s4" d="m894.9 130.1h34.4c11.1 0 18.8 3 23.7 8 4.3 4.1 6.5 9.7 6.5 16.9v0.2c0 11.1-6 18.5-15 22.4l17.4 25.3h-23.3l-14.7-22h-8.8v22h-20.2zm33.5 35c6.8 0 10.8-3.3 10.8-8.6v-0.2c0-5.8-4.2-8.7-10.9-8.7h-13.2v17.5z"/>
				<path id="&lt;Compound Path&gt;" class="s4" d="m970.1 130.1h20.2v72.8h-20.2z"/>
				<path id="&lt;Compound Path&gt;" fill-rule="evenodd" class="s4" d="m1001.2 166.8v-0.2c0-21 16.8-37.9 39.3-37.9 22.4 0 39.1 16.7 39.1 37.6v0.3c0 20.9-16.9 37.8-39.3 37.8-22.5 0-39.1-16.7-39.1-37.6zm57.8 0v-0.2c0-10.6-7.6-19.7-18.7-19.7-11.1 0-18.4 8.9-18.4 19.4v0.3c0 10.5 7.6 19.6 18.6 19.6 11.1 0 18.5-8.9 18.5-19.4z"/>
				<path id="&lt;Compound Path&gt;" fill-rule="evenodd" class="s4" d="m1118.9 130.1h28.1c26 0 41.1 15 41.1 36v0.2c0 21-15.3 36.6-41.5 36.6h-27.7zm28.4 55c12 0 20.1-6.7 20.1-18.4v-0.3c0-11.6-8.1-18.4-20.1-18.4h-8.2v37.1z"/>
				<path id="&lt;Compound Path&gt;" class="s4" d="m1198.9 130.1h20.3v72.8h-20.3z"/>
				<path id="&lt;Compound Path&gt;" class="s4" d="m1230 166.8v-0.2c0-21.3 16.6-37.9 39.2-37.9 12.8 0 21.8 3.9 29.5 10.6l-11.8 14.3c-5.2-4.4-10.4-6.9-17.6-6.9-10.5 0-18.6 8.8-18.6 20v0.2c0 11.7 8.2 20.1 19.7 20.1 4.9 0 8.7-1 11.7-3v-8.8h-14.4v-14.8h33.5v32.8c-7.7 6.3-18.4 11.2-31.6 11.2-22.7 0-39.6-15.6-39.6-37.6z"/>
				<path id="&lt;Compound Path&gt;" class="s4" d="m1312.9 130.1h20.2v72.8h-20.2z"/>
				<path id="&lt;Compound Path&gt;" class="s4" d="m1364.2 147.8h-21.8v-17.7h63.8v17.7h-21.8v55.1h-20.2z"/>
				<path id="&lt;Compound Path&gt;" fill-rule="evenodd" class="s4" d="m1430.9 129.6h19.4l31 73.3h-21.6l-5.3-13h-28.1l-5.2 13h-21.2zm17.7 44.7l-8.1-20.7-8.2 20.7z"/>
				<path id="&lt;Compound Path&gt;" class="s4" d="m1488.4 130.1h20.2v55.2h35.2v17.6h-55.4z"/>
				<path id="&lt;Compound Path&gt;" class="s7" d="m713.4 240.9v70h-7.9v-70z"/>
				<path id="&lt;Compound Path&gt;" class="s7" d="m740.3 310.9h-7.7v-51.6h7.7v9q2.6-4.3 6.8-7.2 4.2-2.9 10.9-2.9 4.7 0 8.4 1.5 3.6 1.5 6.2 4.2 2.5 2.8 3.9 6.5 1.3 3.9 1.3 8.4v32.1h-7.7v-30.1q0-7.2-3.7-11.5-3.7-4.1-10.6-4.1-3.3 0-6.1 1.1-2.9 1.2-5 3.3-2.1 2.2-3.2 5.2-1.2 3-1.2 6.5z"/>
				<path id="&lt;Compound Path&gt;" class="s7" d="m830.5 259.3h8.3l-22.5 52h-6.8l-22.4-52h8.5l17.4 42.9z"/>
				<path id="&lt;Compound Path&gt;" fill-rule="evenodd" class="s7" d="m854.6 295.4q1.6 3.3 4.1 5.5 2.5 2.3 5.6 3.4 3.1 1.1 6.5 1.1 5.4 0.1 9.3-2 3.8-1.9 7-5.2l4.8 4.2q-3.9 4.5-8.9 7.1-5 2.7-12.4 2.7-5.3 0-10-2-4.7-1.9-8.2-5.5-3.5-3.5-5.6-8.5-2.1-5-2.1-11 0-5.6 1.9-10.6 1.8-4.9 5.1-8.6 3.3-3.7 7.9-5.7 4.5-2.2 9.9-2.1 5.7 0 10.2 2.1 4.5 2.2 7.6 5.9 3.1 3.7 4.7 8.6 1.6 5.1 1.6 10.8 0 0.5 0 1.1 0 0.6-0.1 1.2h-40.9q0.4 4.3 2 7.5zm31.1-13.1q-0.3-3.5-1.4-6.7-1.2-3.2-3.2-5.7-2-2.4-5-3.8-2.9-1.4-6.8-1.4-3.3-0.1-6.2 1.3-2.9 1.4-5.1 3.7-2.2 2.4-3.6 5.6-1.4 3.1-1.8 7z"/>
				<path id="&lt;Compound Path&gt;" class="s7" d="m941.2 303q-1.5 2.9-3.9 4.8-2.5 2-5.8 3.1-3.4 1-7.3 1-5.6 0.1-11.3-2-5.7-2-10.1-5.6l3.9-5.5q4.2 3.3 8.8 5 4.5 1.7 9.1 1.6 4.7 0 7.7-2.1 3-2.2 3-6v-0.2q0-1.9-1-3.3-1.1-1.4-2.9-2.5-1.8-1-4.1-1.9-2.4-0.7-4.9-1.5-3-0.9-6-1.9-3.1-1-5.5-2.7-2.5-1.5-4-4-1.6-2.3-1.6-6v-0.1q0-3.4 1.3-6.1 1.3-2.7 3.7-4.7 2.3-2 5.6-3 3.2-1.1 7-1.1 4.8 0.1 9.7 1.6 4.9 1.5 8.9 4.2l-3.5 5.7q-3.6-2.3-7.5-3.6-4-1.4-7.8-1.4-4.6 0-7.3 2.2-2.7 2.1-2.7 5.3v0.3q0 1.8 1.1 3.1 1.1 1.4 3 2.4 1.8 0.9 4.2 1.7 2.4 0.9 5 1.6 3 0.9 6 2 2.9 1.2 5.3 2.9 2.4 1.7 3.9 4 1.4 2.5 1.4 6v0.1q0 3.7-1.4 6.6z"/>
				<path id="&lt;Compound Path&gt;" class="s7" d="m966.3 296.3q0 4.7 2.4 6.6 2.4 1.9 6.3 1.9 2 0 3.8-0.4 1.7-0.4 3.7-1.3v6.6q-2 1.1-4.2 1.6-2.3 0.5-5.1 0.5-3.1 0-5.8-0.7-2.7-0.8-4.6-2.6-2-1.8-3.1-4.6-1.1-2.8-1.1-6.6v-31.2h-7.2v-6.8h7.2v-15.6h7.7v15.6h16.4v6.8h-16.4z"/>
				<path id="&lt;Compound Path&gt;" class="s7" d="m996.5 247.9v-8.5h8.8v8.5zm0.5 63v-51.6h7.7v51.6z"/>
				<path id="&lt;Compound Path&gt;" fill-rule="evenodd" class="s7" d="m1070 312.9q-1.9 4.7-5.3 7.9-3.5 3.1-8.3 4.8-4.9 1.5-10.9 1.6-6.5 0-12.4-1.9-5.9-1.7-11.1-5.4l3.5-6q4.5 3.2 9.4 4.9 4.9 1.7 10.5 1.8 8.6 0 13.7-4.7 5.1-4.7 5.1-13.7v-6.1q-3.4 4.5-8.3 7.7-4.9 3.2-12 3.1-4.7 0.1-9-1.6-4.4-1.7-7.8-4.8-3.4-3.2-5.4-7.7-2.1-4.5-2.1-10.1 0-5.8 2.1-10.3 2-4.5 5.4-7.7 3.4-3.1 7.8-4.9 4.4-1.6 9-1.6 3.6 0 6.7 0.8 3 0.8 5.5 2.3 2.4 1.4 4.4 3.3 2 1.9 3.6 4v-9.3h7.7v42.6q0 6.4-1.8 11zm-7.2-37.6q-1.6-3.2-4.2-5.5-2.7-2.4-6.1-3.6-3.4-1.2-7.1-1.3-3.7 0-6.9 1.3-3.3 1.2-5.7 3.5-2.5 2.3-3.9 5.5-1.4 3.3-1.4 7.2 0 4.1 1.5 7.3 1.4 3.3 3.9 5.6 2.4 2.4 5.7 3.6 3.2 1.3 6.8 1.3 3.7 0 7.1-1.3 3.4-1.2 6.1-3.6 2.6-2.3 4.2-5.5 1.6-3.2 1.6-7.2 0-4-1.6-7.3z"/>
				<path id="&lt;Compound Path&gt;" fill-rule="evenodd" class="s7" d="m1099.4 266.4q-3.8 1-7.4 2.8l-2.3-6.4q4.3-1.9 8.7-3.1 4.4-1.1 10.1-1.1 10.6 0 16.3 5.2 5.7 5.3 5.7 15.5v31.6h-7.4v-7.7q-2.7 3.5-7.2 6.1-4.6 2.8-11.5 2.8-3.6-0.1-7-1-3.5-1-6.2-3.1-2.8-2-4.4-5.1-1.7-3-1.7-7.1 0-4 1.6-7.2 1.6-3.1 4.6-5.3 2.9-2 7-3.1 4-1.1 8.9-1.1 5 0 8.7 0.6 3.7 0.5 7.2 1.6v-1.9q0-6.9-4-10.5-4.1-3.6-11.4-3.6-4.6 0-8.3 1.1zm-2.5 21.3q-3.9 2.8-3.9 7.9 0 2.4 1.1 4.3 1 1.9 2.8 3.3 1.8 1.3 4.1 2.1 2.4 0.6 5 0.6 3.6 0 6.7-1 3.1-1 5.5-2.9 2.3-1.8 3.7-4.4 1.3-2.5 1.3-5.7v-5q-2.9-0.7-6.6-1.5-3.7-0.6-8.5-0.6-7.3-0.1-11.2 2.9z"/>
				<path id="&lt;Compound Path&gt;" class="s7" d="m1182.5 309.3q-5 2.9-12.3 2.9-5.7 0-10.5-2.2-4.9-2.1-8.4-5.8-3.6-3.6-5.6-8.5-2-4.9-2-10.4 0-5.6 2-10.5 2-4.9 5.6-8.6 3.5-3.7 8.4-5.9 4.8-2.1 10.5-2.1 3.7 0 6.7 0.6 3 0.7 5.5 2 2.5 1.3 4.6 3 2.1 1.7 3.9 3.5l-5.1 5.5q-3.1-3.2-6.7-5.5-3.7-2.4-9-2.4-3.9 0-7.3 1.6-3.4 1.5-5.9 4.3-2.5 2.7-3.9 6.4-1.4 3.6-1.4 7.8 0 4.2 1.5 7.9 1.4 3.7 4 6.4 2.5 2.8 6 4.3 3.4 1.6 7.5 1.6 5 0 8.9-2.3 3.8-2.1 6.9-5.5l4.9 4.7q-3.9 4.4-8.8 7.2z"/>
				<path id="&lt;Compound Path&gt;" class="s7" d="m1204.2 247.9v-8.5h8.8v8.5zm0.5 63v-51.6h7.7v51.6z"/>
				<path id="&lt;Compound Path&gt;" fill-rule="evenodd" class="s7" d="m1279 295.5q-2.1 4.9-5.7 8.7-3.6 3.7-8.6 5.8-5 2.2-10.8 2.2-5.8 0-10.7-2.2-4.9-2.1-8.5-5.8-3.6-3.6-5.6-8.5-2-4.9-2-10.4 0-5.6 2-10.5 2-4.9 5.6-8.6 3.6-3.7 8.6-5.9 4.9-2.1 10.8-2.1 5.8 0 10.8 2.1 4.9 2.2 8.5 5.8 3.6 3.7 5.6 8.6 2 4.9 2 10.4 0 5.4-2 10.4zm-7.3-18.2q-1.5-3.7-4.1-6.4-2.6-2.8-6.1-4.3-3.5-1.7-7.6-1.7-4.2 0-7.7 1.6-3.5 1.5-5.9 4.3-2.5 2.7-3.9 6.4-1.4 3.6-1.4 7.8 0 4.2 1.5 7.9 1.4 3.7 4 6.4 2.5 2.7 6 4.3 3.5 1.6 7.6 1.6 4.2 0 7.7-1.6 3.5-1.5 6-4.2 2.5-2.7 3.9-6.4 1.4-3.6 1.4-7.8 0-4.2-1.4-7.9z"/>
				<path id="&lt;Compound Path&gt;" class="s7" d="m1302.6 310.9h-7.7v-51.6h7.7v9q2.6-4.3 6.8-7.2 4.2-2.9 10.9-2.9 4.7 0 8.4 1.5 3.6 1.5 6.2 4.2 2.5 2.8 3.9 6.5 1.3 3.9 1.3 8.4v32.1h-7.7v-30.1q0-7.2-3.7-11.5-3.7-4.1-10.6-4.1-3.3 0-6.1 1.1-2.9 1.2-5 3.3-2.1 2.2-3.2 5.2-1.2 3-1.2 6.5z"/>
				<path id="&lt;Compound Path&gt;" fill-rule="evenodd" class="s7" d="m1363.2 295.4q1.6 3.3 4.1 5.5 2.5 2.3 5.6 3.4 3.1 1.1 6.5 1.1 5.4 0.1 9.3-2 3.8-1.9 7-5.2l4.8 4.2q-3.9 4.5-8.9 7.1-5 2.7-12.4 2.7-5.3 0-10-2-4.7-1.9-8.2-5.5-3.5-3.5-5.6-8.5-2.1-5-2.1-11 0-5.6 1.9-10.6 1.8-4.9 5.1-8.6 3.3-3.7 7.9-5.7 4.5-2.2 9.9-2.1 5.7 0 10.2 2.1 4.5 2.2 7.6 5.9 3.1 3.7 4.7 8.6 1.6 5.1 1.6 10.8 0 0.5 0 1.1 0 0.6-0.1 1.2h-40.9q0.4 4.3 2 7.5zm31.1-13.1q-0.3-3.5-1.4-6.7-1.2-3.2-3.2-5.7-2-2.4-5-3.8-2.9-1.4-6.8-1.4-3.4-0.1-6.2 1.3-2.9 1.4-5.1 3.7-2.2 2.4-3.6 5.6-1.4 3.1-1.8 7z"/>
				<path id="&lt;Compound Path&gt;" class="s7" d="m1449.8 303q-1.5 2.9-3.9 4.8-2.5 2-5.8 3.1-3.4 1-7.3 1-5.6 0.1-11.3-2-5.7-2-10.1-5.6l3.9-5.5q4.2 3.3 8.8 5 4.5 1.7 9.1 1.6 4.7 0 7.7-2.1 3-2.2 3-6v-0.2q0-1.9-1-3.3-1.1-1.4-2.9-2.5-1.8-1-4.1-1.9-2.4-0.7-4.9-1.5-3-0.9-6-1.9-3.1-1-5.5-2.7-2.5-1.5-4-4-1.6-2.3-1.6-6v-0.1q0-3.4 1.3-6.1 1.3-2.7 3.7-4.7 2.3-2 5.6-3 3.2-1.1 7-1.1 4.8 0.1 9.7 1.6 4.9 1.5 8.9 4.2l-3.5 5.7q-3.6-2.3-7.5-3.6-4-1.4-7.8-1.4-4.6 0-7.3 2.2-2.7 2.1-2.7 5.3v0.3q0 1.8 1.1 3.1 1.1 1.4 3 2.4 1.8 0.9 4.2 1.7 2.4 0.9 5 1.6 3 0.9 6 2 2.9 1.2 5.3 2.9 2.4 1.7 3.9 4 1.4 2.5 1.4 6v0.1q0 3.7-1.4 6.6z"/>
				<path id="&lt;Compound Path&gt;" class="s7" d="m1520.7 312.7q-3.3 8-7.3 11.2-4.1 3.4-9.9 3.4-3.2 0-5.8-0.7-2.6-0.6-5.2-1.9l2.6-6.1q1.9 0.9 3.8 1.4 1.8 0.4 4.3 0.4 3.5 0.1 5.9-2.1 2.4-2 4.7-7.5l-23.5-51.5h8.5l18.8 43 16.6-43h8.2z"/>
				<path id="&lt;Compound Path&gt;" fill-rule="evenodd" class="s7" d="m1244.1 418.9h-8.5l-8.2-18.5h-38.1l-8.3 18.5h-8.1l31.9-70.5h7.4zm-35.7-61.1l-16 35.6h31.9z"/>
				<path id="&lt;Compound Path&gt;" class="s7" d="m1264.3 418.9h-7.7v-51.6h7.7v9q2.6-4.3 6.8-7.2 4.2-2.9 10.9-2.9 4.7 0 8.4 1.5 3.6 1.5 6.2 4.2 2.5 2.8 3.9 6.5 1.3 3.9 1.3 8.4v32.1h-7.7v-30.1q0-7.2-3.7-11.5-3.7-4.1-10.6-4.1-3.3 0-6.1 1.1-2.9 1.2-5 3.3-2.1 2.2-3.2 5.2-1.2 3-1.2 6.5z"/>
				<path id="&lt;Compound Path&gt;" fill-rule="evenodd" class="s7" d="m1328.6 374.4q-3.8 1-7.4 2.8l-2.3-6.4q4.3-1.9 8.7-3.1 4.4-1.1 10.1-1.1 10.6 0 16.3 5.2 5.7 5.3 5.7 15.5v31.6h-7.4v-7.7q-2.7 3.5-7.2 6.1-4.6 2.8-11.5 2.8-3.6-0.1-7-1-3.5-1-6.2-3.1-2.8-2-4.4-5.1-1.7-3-1.7-7.1 0-4 1.6-7.2 1.6-3.1 4.6-5.3 2.9-2 7-3.1 4-1.1 8.9-1.1 5 0 8.7 0.6 3.7 0.5 7.2 1.6v-1.9q0-6.9-4-10.5-4.1-3.6-11.4-3.6-4.6 0-8.3 1.1zm-2.5 21.3q-3.9 2.8-3.9 7.9 0 2.4 1.1 4.3 1 1.9 2.8 3.3 1.8 1.3 4.1 2.1 2.4 0.6 5 0.6 3.6 0 6.7-1 3.2-1 5.5-2.9 2.3-1.8 3.7-4.4 1.3-2.5 1.3-5.7v-5q-2.9-0.7-6.6-1.5-3.7-0.6-8.5-0.6-7.3-0.1-11.2 2.9zm8.3-36.3l9.5-14.5 8 3.8-11.3 10.7z"/>
				<path id="&lt;Compound Path&gt;" class="s7" d="m1376.8 418.9v-73h7.7v73z"/>
				<path id="&lt;Compound Path&gt;" class="s7" d="m1402.6 355.9v-8.5h8.8v8.5zm0.5 63v-51.6h7.7v51.6z"/>
				<path id="&lt;Compound Path&gt;" class="s7" d="m1462.8 411q-1.5 2.9-3.9 4.8-2.5 2-5.8 3.1-3.4 1-7.3 1-5.6 0.1-11.3-2-5.7-2-10.1-5.6l3.9-5.5q4.2 3.3 8.8 5 4.5 1.7 9.1 1.6 4.7 0 7.7-2.1 3-2.2 3-6v-0.2q0-1.9-1-3.3-1.1-1.4-2.9-2.5-1.8-1-4.1-1.9-2.4-0.7-4.9-1.5-3-0.9-6-1.9-3.1-1-5.5-2.7-2.5-1.5-4-4-1.6-2.3-1.6-6v-0.1q0-3.4 1.3-6.1 1.3-2.7 3.7-4.7 2.3-2 5.6-3 3.2-1.1 7-1.1 4.8 0.1 9.7 1.6 4.9 1.5 8.9 4.2l-3.5 5.7q-3.6-2.3-7.5-3.6-4-1.4-7.8-1.4-4.6 0-7.3 2.2-2.7 2.1-2.7 5.3v0.3q0 1.8 1.1 3.1 1.1 1.4 3 2.4 1.8 0.9 4.2 1.7 2.4 0.9 5 1.6 3 0.9 6 2 2.9 1.2 5.3 2.9 2.4 1.7 3.9 4 1.4 2.5 1.4 6v0.1q0 3.7-1.4 6.6z"/>
				<path id="&lt;Compound Path&gt;" class="s7" d="m1478.7 355.9v-8.5h8.8v8.5zm0.5 63v-51.6h7.7v51.6z"/>
				<path id="&lt;Compound Path&gt;" class="s7" d="m1538.9 411q-1.5 2.9-3.9 4.8-2.5 2-5.8 3.1-3.4 1-7.3 1-5.6 0.1-11.3-2-5.7-2-10.1-5.6l3.9-5.5q4.2 3.3 8.8 5 4.5 1.7 9.1 1.6 4.7 0 7.7-2.1 3-2.2 3-6v-0.2q0-1.9-1-3.3-1.1-1.4-2.9-2.5-1.8-1-4.1-1.9-2.4-0.7-4.9-1.5-3-0.9-6-1.9-3.1-1-5.5-2.7-2.5-1.5-4-4-1.6-2.3-1.6-6v-0.1q0-3.4 1.3-6.1 1.3-2.7 3.7-4.7 2.3-2 5.6-3 3.2-1.1 7-1.1 4.8 0.1 9.7 1.6 4.9 1.5 8.9 4.2l-3.5 5.7q-3.6-2.3-7.5-3.6-4-1.4-7.8-1.4-4.6 0-7.3 2.2-2.7 2.1-2.7 5.3v0.3q0 1.8 1.1 3.1 1.1 1.4 3 2.4 1.8 0.9 4.2 1.7 2.4 0.9 5 1.6 3 0.9 6 2 2.9 1.2 5.3 2.9 2.4 1.7 3.9 4 1.4 2.5 1.4 6v0.1q0 3.7-1.4 6.6z"/>
			</g>
			<g id="&lt;Group&gt;">
				<g id="&lt;Group&gt;">
					<path id="&lt;Path&gt;" class="s8" d="m1071.5 403.3h-38v-11.5h38z"/>
				</g>
			</g>
			<g id="&lt;Group&gt;">
				<path id="&lt;Path&gt;" class="s3" d="m1009.7 403.3h-38v-11.5h38z"/>
			</g>
			<g id="&lt;Group&gt;">
				<g id="&lt;Group&gt;">
					<path id="&lt;Path&gt;" class="s9" d="m948 403.3h-38v-11.5h38z"/>
				</g>
			</g>
			<g id="&lt;Group&gt;">
				<path id="&lt;Path&gt;" class="s2" d="m1133.3 403.3h-38v-11.5h38z"/>
			</g>
			<path id="&lt;Path&gt;" class="s7" d="m886.8 391.6v12h-789c-47.8 0-86.7-38.9-86.7-86.8 0-34.2 19.7-64.8 50.7-78.9 4.4-44 41.6-77.9 86.2-77.9 14.2 0 28.1 3.4 40.6 10 18.1-36.4 55.2-59.7 96.4-59.7 18.4 0 36.3 4.9 52.1 13.6v6.5q-1.6 2.8-3.2 5.5c-14.7-8.7-31.5-13.6-48.9-13.6-38.6 0-73.2 23-88.2 58.6l-2.7 6.5-6-3.8c-12-7.6-25.8-11.6-40.1-11.6-39.5 0-72.3 30.9-74.5 70.4l-0.3 3.7-3.5 1.5c-28.3 11.5-46.6 38.7-46.6 69.2 0 41.2 33.5 74.8 74.7 74.8z"/>
			<path id="&lt;Compound Path&gt;" fill-rule="evenodd" class="s4" d="m341.1 130.1h34.4c11.1 0 18.8 3 23.7 8 4.3 4.1 6.5 9.7 6.5 16.9v0.2c0 11.1-6 18.5-15 22.4l17.4 25.3h-23.3l-14.7-22h-8.8v22h-20.2zm33.5 35c6.8 0 10.8-3.3 10.8-8.6v-0.2c0-5.8-4.2-8.7-10.9-8.7h-13.2v17.5z"/>
		</g>
	</g>
</svg>